<svg xmlns="http://www.w3.org/2000/svg" width="106.301" height="48.855" viewBox="0 0 106.301 48.855">
    <defs>
        <linearGradient id="7j5zmapfea" x1="1.864" y1="-51.277" x2="2.664" y2="-51.277" gradientUnits="objectBoundingBox">
            <stop offset="0" stop-color="#11aae2"/>
            <stop offset=".59" stop-color="#0880b7"/>
            <stop offset="1" stop-color="#016197"/>
        </linearGradient>
    </defs>
    <g data-name="Group 7545">
        <path data-name="Path 155" d="M-278.191 1835.762a4.789 4.789 0 0 0-2.373 4.123 5.391 5.391 0 0 0 .792 2.546 1.784 1.784 0 0 1-.7 2.545 1.88 1.88 0 0 1-2.545-.7 7.931 7.931 0 0 0-1.93-1.93 4.6 4.6 0 0 0-4.739 0 4.793 4.793 0 0 0-2.371 4.128 4.785 4.785 0 0 0 2.37 4.126 4.6 4.6 0 0 0 4.739 0 4.843 4.843 0 0 0 1.842-1.93 1.807 1.807 0 0 1 2.545-.7 1.966 1.966 0 0 1 .7 2.545 5.29 5.29 0 0 0-.7 2.545 4.772 4.772 0 0 0 2.373 4.124 4.6 4.6 0 0 0 4.739 0 4.79 4.79 0 0 0 2.373-4.124 4.788 4.788 0 0 0-2.373-4.126 5.3 5.3 0 0 0-2.634-.614 1.784 1.784 0 0 1-1.842-1.842 1.8 1.8 0 0 1 1.842-1.842 5.527 5.527 0 0 0 2.634-.615 4.79 4.79 0 0 0 2.373-4.124 4.78 4.78 0 0 0-2.373-4.124 4.545 4.545 0 0 0-2.37-.615 4.531 4.531 0 0 0-2.368.611" transform="translate(377.379 -1814.014)" style="fill:url(#7j5zmapfea)"/>
        <g data-name="Group 19">
            <path data-name="Path 156" d="m-403.037 1827.923-.206.7v20.342l.206.2 9.442-5.581z" transform="translate(441.722 -1809.831)" style="fill:#343434"/>
            <path data-name="Path 157" d="m-415.724 1827.923-9.442 15.667 9.442 5.581v-21.248z" transform="translate(454.409 -1809.831)" style="fill:#8c8c8c"/>
            <path data-name="Path 158" d="m-402.913 1874.941-.116.142v7.246l.116.339 9.448-13.305z" transform="translate(441.598 -1833.813)" style="fill:#3c3c3b"/>
            <path data-name="Path 159" d="M-415.724 1882.667v-7.727l-9.442-5.579z" transform="translate(454.409 -1833.812)" style="fill:#8c8c8c"/>
            <path data-name="Path 160" d="m-402.753 1864.8 9.442-5.581-9.442-4.291z" transform="translate(441.438 -1825.458)" style="fill:#141414"/>
            <path data-name="Path 161" d="m-425.166 1859.216 9.442 5.581v-9.872z" transform="translate(454.409 -1825.458)" style="fill:#393939"/>
        </g>
        <g data-name="Group 20">
            <path data-name="Path 162" d="M-471.15 1849.924a11.891 11.891 0 0 1-14.415 8.661 11.89 11.89 0 0 1-8.659-14.414 11.89 11.89 0 0 1 14.413-8.663 11.893 11.893 0 0 1 8.661 14.416z" transform="translate(494.579 -1814.015)" style="fill:#f7931a"/>
            <path data-name="Path 163" d="M-469.492 1851.045c.237-1.583-.968-2.433-2.616-3l.534-2.144-1.305-.325-.52 2.087c-.343-.085-.7-.166-1.046-.246l.524-2.1-1.3-.325-.535 2.143a22.622 22.622 0 0 1-.833-.2v-.006l-1.8-.45-.347 1.394s.968.222.948.236a.694.694 0 0 1 .608.759l-.609 2.443a1.2 1.2 0 0 1 .136.043l-.138-.034-.853 3.422a.476.476 0 0 1-.6.309c.013.02-.948-.237-.948-.237l-.648 1.494 1.7.423c.316.079.626.162.93.24l-.54 2.168 1.3.325.535-2.146c.356.1.7.186 1.04.27l-.533 2.136 1.3.325.54-2.165c2.225.421 3.9.251 4.6-1.762a2.29 2.29 0 0 0-1.2-3.165 2.08 2.08 0 0 0 1.676-1.912zm-2.982 4.181c-.4 1.621-3.132.744-4.017.524l.717-2.872c.885.222 3.722.658 3.301 2.348zm.4-4.2c-.368 1.474-2.639.725-3.376.541l.649-2.605c.742.179 3.115.522 2.731 2.059z" transform="translate(486.629 -1819.708)" style="fill:#fff"/>
        </g>
        <g data-name="Group 21" transform="translate(54.706 21.137)">
            <circle data-name="Ellipse 3" cx="9.978" cy="9.978" transform="translate(2.31 1.666)" style="fill:#f1f2f2" r="9.978"/>
            <path data-name="Path 164" d="M-352.715 1835.152a12.01 12.01 0 0 0-12.01 12.01 12.009 12.009 0 0 0 12.01 12.01 12.01 12.01 0 0 0 12.01-12.01 11.975 11.975 0 0 0-11.94-12.01h-.07zm.2 12.418-1.25 4.216h6.688a.337.337 0 0 1 .349.326v.111l-.582 2.006a.434.434 0 0 1-.436.32h-10.236l1.716-5.844-1.919.581.436-1.338 1.919-.582 2.413-8.2a.438.438 0 0 1 .436-.319h2.588a.336.336 0 0 1 .349.325v.11l-2.036 6.921 1.919-.581-.407 1.4z" transform="translate(364.725 -1835.152)" style="fill:#345d9d"/>
        </g>
        <g data-name="CRYPTOPAY LOGO">
            <path data-name="Path 146" d="M-717.948 1443.753c0 3.818-2.729 6.461-6.664 6.456a6.227 6.227 0 0 1-6.57-6.544 6.37 6.37 0 0 1 6.7-6.485c3.731.112 6.626 2.731 6.534 6.573zm-2.4 0a4.084 4.084 0 0 0-4.22-4.23 4.064 4.064 0 0 0-4.169 4.2 4.133 4.133 0 0 0 4.144 4.257 4.122 4.122 0 0 0 4.247-4.228z" transform="translate(789.603 -1437.176)" style="fill:#219cd7"/>
            <path data-name="Path 147" d="M-1031.626 1448.061v3c-.005.88-.447 1.37-1.219 1.37a1.156 1.156 0 0 1-1.192-1.316c-.012-3.3 0-6.594 0-9.89 0-.7.324-1.206 1.03-1.217a52.809 52.809 0 0 1 5.533.072 3.683 3.683 0 0 1 3.34 3.127 3.84 3.84 0 0 1-1.982 4.267c-.065.037-.124.082-.256.171l1.873 2.284c.141.173.291.341.417.525a1.2 1.2 0 0 1-.112 1.674 1.237 1.237 0 0 1-1.8-.179c-.462-.55-.844-1.165-1.262-1.751-.086-.122-.173-.243-.258-.365-1.429-2.043-1.429-2.043-4.112-1.772zm.057-5.86v3.713c1.222 0 2.39.038 3.553-.011a1.769 1.769 0 0 0 1.636-1.939 1.659 1.659 0 0 0-1.639-1.754c-1.163-.037-2.33-.01-3.55-.01z" transform="translate(1047.029 -1439.555)" style="fill:#219cd7"/>
            <path data-name="Path 148" d="M-552.348 1452.249c-.175-.156-.665-.383-.769-.725-.412-1.353-1.3-1.616-2.6-1.5a37.332 37.332 0 0 1-4.116.014.839.839 0 0 0-.967.594 5.683 5.683 0 0 1-.462.931 1.394 1.394 0 0 1-1.739.58 1.211 1.211 0 0 1-.479-1.674c.771-1.554 1.58-3.089 2.377-4.63.888-1.718 1.783-3.432 2.665-5.153a1.388 1.388 0 0 1 1.312-.926c.658.009.955.427 1.214.941 1.606 3.187 3.224 6.368 4.83 9.555a1.293 1.293 0 0 1-1.266 1.993zm-4.874-8.989-2.126 4.336h4.1z" transform="translate(647.19 -1439.369)" style="fill:#219cd7"/>
            <path data-name="Path 149" d="M-876.262 1447.96c0 .913.015 1.653 0 2.393-.02.784-.417 1.2-1.114 1.208a1.139 1.139 0 0 1-1.265-1.171q-.031-5.088 0-10.176a1.085 1.085 0 0 1 1.116-1.167 38.845 38.845 0 0 1 5.149.112c2.414.3 3.676 2.172 3.559 4.924a4.051 4.051 0 0 1-3.912 3.862c-1.139.085-2.284.015-3.533.015zm-.009-2.256c1.131 0 2.2.048 3.264-.015a2.1 2.1 0 0 0 1.835-1.95 2.044 2.044 0 0 0-1.58-2.291 30.777 30.777 0 0 0-3.518-.031z" transform="translate(914.955 -1438.741)" style="fill:#219cd7"/>
            <path data-name="Path 150" d="M-626.066 1448.007c0 .9.007 1.619 0 2.336-.011.832-.4 1.272-1.122 1.281a1.183 1.183 0 0 1-1.268-1.251q-.014-5.017 0-10.034a1.115 1.115 0 0 1 1.125-1.233 41.633 41.633 0 0 1 5.225.13c2.266.277 3.6 2.2 3.508 4.7a4.1 4.1 0 0 1-3.809 4.058c-1.185.092-2.383.013-3.659.013zm.028-2.229h.739c.82 0 1.643.03 2.461-.02a2.142 2.142 0 0 0 1.883-1.9 2.065 2.065 0 0 0-1.585-2.354 30.47 30.47 0 0 0-3.5-.031z" transform="translate(702.296 -1438.8)" style="fill:#219cd7"/>
            <path data-name="Path 151" d="M-1114.187 1450.765c-3.02-.006-5.115-1.371-5.989-3.9a7 7 0 0 1 2.016-7.77 6.534 6.534 0 0 1 7.906.282 1.269 1.269 0 0 1 .223 1.846 1.213 1.213 0 0 1-1.8-.041 3.739 3.739 0 0 0-4.056-.6 3.472 3.472 0 0 0-2.352 3c-.446 2.945 1.35 5.2 4.1 4.992a6.676 6.676 0 0 0 2.513-1c.732-.4 1.352-.464 1.8.069a1.268 1.268 0 0 1-.242 1.845 6.044 6.044 0 0 1-4.119 1.277z" transform="translate(1120.591 -1437.788)" style="fill:#219cd7"/>
            <path data-name="Path 152" d="M-955.578 1444.923c1.042-1.52 2.005-2.932 2.978-4.335a2.447 2.447 0 0 1 .537-.606 1.228 1.228 0 0 1 1.632.182 1 1 0 0 1 .045 1.413c-1.209 1.729-2.437 3.445-3.61 5.2a2.906 2.906 0 0 0-.439 1.357c-.067.937-.011 1.882-.025 2.824-.011.787-.387 1.212-1.076 1.261a1.135 1.135 0 0 1-1.27-1.155c-.058-1.037-.007-2.081-.062-3.119a2.317 2.317 0 0 0-.341-1.094c-1.121-1.728-2.284-3.43-3.428-5.143-.49-.733-.423-1.329.183-1.746a1.217 1.217 0 0 1 1.8.422c1.016 1.464 2.003 2.949 3.076 4.539z" transform="translate(984.91 -1439.336)" style="fill:#219cd7"/>
            <path data-name="Path 153" d="m-479.036 1444.879 2.812-4.091a5.149 5.149 0 0 1 .478-.664 1.246 1.246 0 0 1 1.7-.112 1 1 0 0 1 .186 1.555c-1.19 1.739-2.417 3.455-3.579 5.212a2.9 2.9 0 0 0-.419 1.358c-.064.936-.011 1.88-.022 2.821a1.118 1.118 0 0 1-1.174 1.238 1.161 1.161 0 0 1-1.2-1.237 12.639 12.639 0 0 1 .01-1.855 4.34 4.34 0 0 0-1.028-3.28c-1.011-1.348-1.913-2.776-2.856-4.174-.473-.7-.409-1.25.177-1.686a1.161 1.161 0 0 1 1.753.311c.9 1.272 1.764 2.578 2.644 3.869.148.219.305.435.518.735z" transform="translate(579.882 -1439.314)" style="fill:#219cd7"/>
            <path data-name="Path 154" d="M-801 1442.207v8.941a1.129 1.129 0 0 1-1.16 1.256 1.12 1.12 0 0 1-1.178-1.241c-.012-2.726-.023-5.452.008-8.177.007-.623-.187-.825-.8-.787-.771.047-1.547.029-2.32 0a1.115 1.115 0 0 1-1.222-1.194 1.1 1.1 0 0 1 1.244-1.093q4.192-.014 8.384 0c.815 0 1.282.44 1.282 1.138s-.443 1.13-1.27 1.149c-.968.026-1.936.008-2.968.008z" transform="translate(854.622 -1439.498)" style="fill:#219cd7"/>
        </g>
    </g>
</svg>
