<svg xmlns="http://www.w3.org/2000/svg" width="85.949" height="84.784" viewBox="0 0 85.949 84.784">
    <g data-name="Group 7562">
        <g data-name="Group 365">
            <path data-name="Path 1592" d="M-2402.611 1013.56h-10.335v8.717c0 6.508 6.554 9.044 11.992 9.719a49.04 49.04 0 0 1-1.657-13.014z" style="fill:none" transform="translate(2417.445 -992.577)"/>
            <path data-name="Path 1593" d="M-2398.111 1018.982a42.889 42.889 0 0 0 2.3 14.5 2.206 2.206 0 0 1 .184.532c5.439 14.514 18.162 18.047 21.268 18.069 3.8-.027 22.818-5.492 23.722-31.216v-23.79h-47.475z" style="fill:none" transform="translate(2417.445 -992.577)"/>
            <path data-name="Path 1594" d="M-2346.136 1020.9v.077a47.672 47.672 0 0 1-1.625 11.039c4.238-.491 11.767-2.4 11.767-9.74v-8.717h-10.14z" style="fill:none" transform="translate(2417.445 -992.577)"/>
            <path data-name="Path 1595" d="M-2333.746 1009.06h-12.39v-14.233a2.25 2.25 0 0 0-2.25-2.25h-51.975a2.25 2.25 0 0 0-2.25 2.25v14.233h-12.589a2.25 2.25 0 0 0-2.25 2.25v10.967c0 4.947 2.476 8.924 7.162 11.5a26.025 26.025 0 0 0 10.909 2.876c5.421 13.119 16.369 18.609 22.776 19.706l-.16 16.5h-13.092a2.25 2.25 0 0 0-2.25 2.25 2.251 2.251 0 0 0 2.25 2.25h31.045a2.25 2.25 0 0 0 2.25-2.25 2.25 2.25 0 0 0-2.25-2.25h-13.453l.161-16.508c6.347-1.113 17.309-6.594 22.744-19.7 9.061-.331 17.858-4.807 17.858-14.379v-10.962a2.25 2.25 0 0 0-2.246-2.25zm-79.2 13.217v-8.717h10.335v5.422a49.04 49.04 0 0 0 1.657 13.014c-5.438-.675-11.992-3.211-11.992-9.719zm62.31-1.415c-.9 25.724-19.926 31.189-23.722 31.216-3.106-.022-15.829-3.555-21.268-18.069a2.206 2.206 0 0 0-.184-.532 42.889 42.889 0 0 1-2.3-14.5v-21.9h47.475zm14.64 1.415c0 7.343-7.529 9.249-11.767 9.74a47.672 47.672 0 0 0 1.625-11.039v-7.418H-2336z" style="fill:#fff" transform="translate(2417.445 -992.577)"/>
        </g>
        <g data-name="Group 366">
            <path data-name="Path 1596" d="m-2371.7 1017.325-2.676-5.422-2.676 5.422a2.248 2.248 0 0 1-1.694 1.23l-5.98.871 4.325 4.212a2.251 2.251 0 0 1 .648 1.992l-1.022 5.963 5.353-2.811a2.244 2.244 0 0 1 2.092 0l5.351 2.81-1.023-5.962a2.25 2.25 0 0 1 .648-1.992l4.325-4.213-5.978-.87a2.246 2.246 0 0 1-1.693-1.23z" style="fill:none" transform="translate(2417.445 -992.577)"/>
            <path data-name="Path 1597" d="M-2357.052 1017.161a2.249 2.249 0 0 0-1.816-1.532l-9.32-1.356-4.17-8.45a2.251 2.251 0 0 0-2.018-1.254 2.251 2.251 0 0 0-2.018 1.254l-4.17 8.449-9.323 1.357a2.25 2.25 0 0 0-1.816 1.532 2.25 2.25 0 0 0 .57 2.307l6.745 6.568-1.593 9.287a2.251 2.251 0 0 0 .9 2.2 2.251 2.251 0 0 0 2.369.172l8.341-4.38 8.338 4.38a2.244 2.244 0 0 0 1.046.258 2.247 2.247 0 0 0 1.323-.43 2.25 2.25 0 0 0 .9-2.2l-1.593-9.287 6.745-6.568a2.251 2.251 0 0 0 .56-2.307zm-11.3 6.477a2.25 2.25 0 0 0-.648 1.992l1.023 5.962-5.351-2.81a2.244 2.244 0 0 0-2.092 0l-5.353 2.811 1.022-5.963a2.251 2.251 0 0 0-.648-1.992l-4.325-4.212 5.98-.871a2.248 2.248 0 0 0 1.694-1.23l2.676-5.422 2.676 5.422a2.246 2.246 0 0 0 1.693 1.23l5.978.87z" style="fill:#ba101f" transform="translate(2417.445 -992.577)"/>
        </g>
    </g>
</svg>
