<svg xmlns="http://www.w3.org/2000/svg" width="114.558" height="27.095" viewBox="0 0 114.558 27.095">
    <path data-name="Path 122" d="M258.644 999.015c-10.913 0-19.742 5.171-19.742 11.592 0 2.72 1.6 5.216 4.3 7.222a8.6 8.6 0 0 1-2.086-5.44c0-6.643 8.652-12.036 19.3-12.036 6.877 0 12.911 2.228 16.325 5.616-3.056-4.101-10.022-6.954-18.097-6.954z" transform="translate(-238.901 -999.015)" style="fill:#8cc23c"/>
    <path data-name="Path 123" d="M254.588 1011.153a3.333 3.333 0 0 0 1.94-.508 1.828 1.828 0 0 0 .852-1.627 5.883 5.883 0 0 0-1.293-3.658 7.959 7.959 0 0 0-6.461-3.124 7.739 7.739 0 0 0-5.742 2.269 7.5 7.5 0 0 0-2.247 5.474 7.15 7.15 0 0 0 2.348 5.433 8.259 8.259 0 0 0 5.875 2.2 12.24 12.24 0 0 0 3.612-.534 5.864 5.864 0 0 0 3-1.791 2.01 2.01 0 0 0 .528-1.28q0-1.682-1.879-1.683a8.587 8.587 0 0 0-2.116.707 7.856 7.856 0 0 1-2.908.708 4.282 4.282 0 0 1-2.437-.667 2.547 2.547 0 0 1-1.145-1.923zm-7.048-4.685a3.466 3.466 0 0 1 4.214.013 2.565 2.565 0 0 1 .955 1.842h-6.256a3.14 3.14 0 0 1 1.087-1.855z" transform="translate(-236.582 -996.285)" style="fill:#fff"/>
    <path data-name="Path 124" d="M252.558 1015.361a7.706 7.706 0 0 0 5.757 2.215 8.8 8.8 0 0 0 3.584-.641q2-.907 2-2.215a1.867 1.867 0 0 0-.514-1.323 1.756 1.756 0 0 0-1.338-.547 4.219 4.219 0 0 0-1.41.32 5.186 5.186 0 0 1-1.849.322 3.338 3.338 0 0 1-2.644-1.067 3.811 3.811 0 0 1-.822-2.564 4 4 0 0 1 .793-2.537 2.994 2.994 0 0 1 2.5-1.122 5.412 5.412 0 0 1 1.9.335 4.37 4.37 0 0 0 1.454.334 1.956 1.956 0 0 0 1.41-.533 1.745 1.745 0 0 0 .558-1.31q0-1.493-1.94-2.243a9.732 9.732 0 0 0-3.377-.533 8.189 8.189 0 0 0-5.933 2.15 8 8 0 0 0-.118 10.962z" transform="translate(-229.118 -996.274)" style="fill:#fff"/>
    <path data-name="Path 125" d="M260.008 1015.41a8.694 8.694 0 0 0 11.689.026 7.45 7.45 0 0 0 2.173-5.472 7.525 7.525 0 0 0-2.2-5.528 8.7 8.7 0 0 0-11.617.013 7.471 7.471 0 0 0-2.246 5.515 7.37 7.37 0 0 0 2.2 5.446zm3.436-7.957a2.821 2.821 0 0 1 2.407-1.147 2.774 2.774 0 0 1 2.38 1.175 3.972 3.972 0 0 1 .763 2.455 4.045 4.045 0 0 1-.734 2.483 2.8 2.8 0 0 1-2.409 1.175 2.775 2.775 0 0 1-2.38-1.175 4.017 4.017 0 0 1-.763-2.483 4.128 4.128 0 0 1 .735-2.483z" transform="translate(-222.88 -996.297)" style="fill:#fff"/>
    <path data-name="Path 126" d="M272.346 1003.892h2.115q3.348 0 3.348 2.536 0 2.591-3.348 2.59h-2.115zm0 12.482v-3.324h3.291a8.055 8.055 0 0 0 5.463-1.734 6.133 6.133 0 0 0 2-4.887 5.973 5.973 0 0 0-2.2-4.941 8.728 8.728 0 0 0-5.639-1.681h-4.406a3.868 3.868 0 0 0-2.644.693 3.258 3.258 0 0 0-.734 2.428v13.438q0 3.146 2.439 3.147t2.437-3.138z" transform="translate(-214.688 -998.344)" style="fill:#8cc23c"/>
    <path data-name="Path 127" d="M281.739 1007.5a2.765 2.765 0 0 1 2.31-1.1 2.718 2.718 0 0 1 2.309 1.1 3.918 3.918 0 0 1 .7 2.376 4.047 4.047 0 0 1-.7 2.4 2.7 2.7 0 0 1-2.309 1.122 2.773 2.773 0 0 1-2.339-1.122 3.925 3.925 0 0 1-.73-2.4 3.782 3.782 0 0 1 .759-2.376zm7.787 9.932q2.35 0 2.35-3.156v-8.695q0-3.128-2.35-3.13a2.529 2.529 0 0 0-2.261 1.362 4.966 4.966 0 0 0-3.819-1.548 6.841 6.841 0 0 0-5.374 2.4 7.989 7.989 0 0 0-.089 10.466 6.7 6.7 0 0 0 5.288 2.4 5.108 5.108 0 0 0 3.994-1.63 2.353 2.353 0 0 0 2.261 1.523z" transform="translate(-207.396 -996.261)" style="fill:#8cc23c"/>
    <path data-name="Path 128" d="m295.331 1004.074-2.908 6.89-2.7-6.516a5.093 5.093 0 0 0-.793-1.469 2.14 2.14 0 0 0-1.617-.614 2.348 2.348 0 0 0-1.659.614 2 2 0 0 0-.661 1.522 2.792 2.792 0 0 0 .264 1.2l4.787 10.171-1.957 3.869a3.454 3.454 0 0 0-.392 1.459 1.9 1.9 0 0 0 .647 1.515 2.513 2.513 0 0 0 1.7.556q1.261 0 2.084-1.734l7.255-15.621a3.607 3.607 0 0 0 .382-1.495q0-2.056-2.35-2.056-1.352 0-2.086 1.709z" transform="translate(-199.837 -996.176)" style="fill:#8cc23c"/>
    <path data-name="Path 129" d="M304.441 1013.04h-4.689l6.3-7.364a3.224 3.224 0 0 0 .964-1.9 1.011 1.011 0 0 0-.735-1.082 8.261 8.261 0 0 0-2.262-.228h-7.606q-3.026 0-3.026 1.949 0 1.976 3 1.977h4.081l-6.52 7.664a2.561 2.561 0 0 0-.7 1.655q0 1.336 2.5 1.334h8.665q3 0 2.995-1.975 0-2.028-2.96-2.031z" transform="translate(-192.843 -996.089)" style="fill:#8cc23c"/>
</svg>
