<svg xmlns="http://www.w3.org/2000/svg" width="47.201" height="47.202" viewBox="0 0 47.201 47.202">
    <defs>
        <clipPath id="s50o1ffioa">
            <path style="fill:none" d="M0 0h47.201v47.202H0z"/>
        </clipPath>
    </defs>
    <g data-name="Group 15" style="clip-path:url(#s50o1ffioa)">
        <g data-name="Group 14">
            <path data-name="Path 107" d="M1217.173 999.8h37.994a3.8 3.8 0 0 1 3.8 3.8v38a3.8 3.8 0 0 1-3.8 3.8h-37.994a3.8 3.8 0 0 1-3.8-3.8v-37.994a3.8 3.8 0 0 1 3.8-3.8z" transform="translate(-1212.57 -999.001)" style="fill:#fdb913"/>
            <path data-name="Path 108" d="M1255.64 1000.278a3.8 3.8 0 0 1 3.8 3.8v37.994a3.8 3.8 0 0 1-3.8 3.8h-37.994a3.8 3.8 0 0 1-3.8-3.8v-38a3.8 3.8 0 0 1 3.8-3.8h37.994m0-.8h-37.994a4.608 4.608 0 0 0-4.6 4.6v37.994a4.608 4.608 0 0 0 4.6 4.6h37.994a4.606 4.606 0 0 0 4.6-4.6v-37.994a4.606 4.606 0 0 0-4.6-4.6" transform="translate(-1213.043 -999.474)" style="fill:#fff"/>
            <path data-name="Path 109" d="M1223.838 1014.91v-8.163l2.132-.506v1.07a3.05 3.05 0 0 1 1.832-1.735 1.224 1.224 0 0 1 .593-.042v2.085a2.978 2.978 0 0 0-1.117.231 1.944 1.944 0 0 0-1.184 2.024v4.508z" transform="translate(-1197.578 -990.816)" style="fill:#231f20"/>
            <path data-name="Path 110" d="M1220.069 1016.625a4.871 4.871 0 0 1-.345-2.354v-4.066l-1.1.261v-1.674l1.1-.26v-1.825l2.265-.536V1008l1.6-.379v1.671l-1.6.379v4.141c0 1.881.5 2.243.5 2.243z" transform="translate(-1205.042 -989.878)" style="fill:#231f20"/>
            <path data-name="Path 111" d="M1220.766 1011.609a6.865 6.865 0 0 1 .65-3.324 3.789 3.789 0 0 1 2.655-1.878c2.486-.567 3.381.905 3.347 2.878-.012.7-.01 1.049-.01 1.049l-4.379 1.029v.071c0 1.379.289 2.034 1.163 1.849a1.2 1.2 0 0 0 1.023-1.217c.01-.095.015-.335.015-.335l2.051-.492s.005.168 0 .358c-.019.783-.245 2.725-3.1 3.4-2.7.642-3.421-1.007-3.421-3.386m3.394-3.681c-.725.163-1.1.876-1.122 2.056l2.2-.526c.005-.053.005-.17.005-.355-.005-.89-.28-1.361-1.085-1.175" transform="translate(-1201.977 -989.717)" style="fill:#231f20"/>
            <path data-name="Path 112" d="M1228.865 1009.6c-.085-2.486.559-4.459 3.333-5.089 1.769-.4 2.441.058 2.778.5a2.83 2.83 0 0 1 .456 1.8v.146l-2.171.516v-.3c0-.949-.263-1.312-.954-1.139-.819.207-1.15.985-1.15 2.535v.722c0 1.574.214 2.294 1.16 2.095.819-.168.932-.89.946-1.521l.005-.416 2.168-.514v.338a3.653 3.653 0 0 1-3.131 3.839c-2.808.659-3.358-.963-3.442-3.513" transform="translate(-1190.382 -992.481)" style="fill:#231f20"/>
            <path data-name="Path 113" d="M1225.777 1012.055c0-1.891 1.107-2.489 2.776-3.177 1.5-.62 1.534-.929 1.538-1.467.009-.455-.2-.842-.949-.652a1.126 1.126 0 0 0-.9 1.068c-.012.139-.017.28-.015.418l-2.1.5a4.113 4.113 0 0 1 .146-1.241c.336-1.131 1.333-1.892 3.053-2.291 2.239-.516 2.983.467 2.985 1.993v3.618c0 1.746.326 2 .326 2l-2.066.486a4.244 4.244 0 0 1-.274-.739 2.823 2.823 0 0 1-2.012 1.5 1.881 1.881 0 0 1-2.5-2.019m4.3-2.582a7.757 7.757 0 0 1-1.1.642 1.461 1.461 0 0 0-1 1.389.713.713 0 0 0 .965.763 1.591 1.591 0 0 0 1.131-1.659z" transform="translate(-1194.797 -991.457)" style="fill:#231f20"/>
            <path data-name="Path 114" d="M1215.121 1014.455a1.311 1.311 0 0 1-1.309-1.311 1.29 1.29 0 0 1 .212-.71l.014-.019.024-.008 3.082-.727v2.341l-.049.012c-.7.167-1.535.36-1.707.4a1.4 1.4 0 0 1-.268.026" transform="translate(-1211.94 -981.986)" style="fill:#231f20"/>
            <path data-name="Path 115" d="M1215.121 1015.686a1.306 1.306 0 0 1-1.1-2.02l.014-.021.024-.005 3.082-.727v2.34l-.049.012c-.7.168-1.535.36-1.707.394a1.407 1.407 0 0 1-.268.027" transform="translate(-1211.94 -980.221)" style="fill:#231f20"/>
            <path data-name="Path 116" d="M1215.121 1016.92a1.309 1.309 0 0 1-1.309-1.309 1.29 1.29 0 0 1 .212-.71l.014-.024 3.106-.733v2.341l-.049.012c-.739.178-1.558.363-1.707.4a1.351 1.351 0 0 1-.268.027" transform="translate(-1211.94 -978.456)" style="fill:#231f20"/>
            <path data-name="Path 117" d="M1214.2 1019.687v-13.1l2.387-.564v13.095z" transform="translate(-1211.384 -990.085)" style="fill:#231f20"/>
            <path data-name="Path 118" d="M1218.381 1012.051a1.473 1.473 0 0 0-2.946 0v12.24a3.994 3.994 0 0 0 3.986 3.99c1.116 0 4.17-.007 4.17-.007v-10.8a1.928 1.928 0 0 0-.856-1.606l-3.715-2.523v5.732a.316.316 0 0 1-.632 0l-.008-7.026" transform="translate(-1209.616 -983.564)" style="fill:#231f20"/>
            <path data-name="Path 119" d="M1219.982 1007.483a3.221 3.221 0 0 0-2.126 1.642v-.92l-2.151.509v5.878a2.2 2.2 0 0 1 2.265.394v-3.793a1.694 1.694 0 0 1 1.1-1.779c.486-.107.893.069.893.932v5.537l2.263-.531v-5.852c0-1.42-.545-2.413-2.246-2.014" transform="translate(-1209.227 -988.126)" style="fill:#231f20"/>
            <path data-name="Path 120" d="M1231.811 1005.635a1.4 1.4 0 1 1 1.4-1.4 1.4 1.4 0 0 1-1.4 1.4m0-2.622a1.224 1.224 0 1 0 1.224 1.223 1.223 1.223 0 0 0-1.224-1.223" transform="translate(-1188.159 -994.66)" style="fill:#231f20"/>
            <path data-name="Path 121" d="M1230.777 1003.07h.6a.392.392 0 0 1 .433.35.527.527 0 0 1 0 .088c0 .224-.1.394-.285.421.17.017.258.109.268.35 0 .11 0 .243.009.348a.176.176 0 0 0 .081.146h-.307a.257.257 0 0 1-.046-.151c-.01-.1-.008-.2-.013-.321 0-.187-.063-.27-.248-.27h-.224v.742h-.273zm.492.761a.252.252 0 0 0 .273-.229v-.049c0-.183-.081-.277-.26-.277h-.231v.554z" transform="translate(-1187.633 -994.327)" style="fill:#231f20"/>
        </g>
    </g>
</svg>
