<svg xmlns="http://www.w3.org/2000/svg" width="59.523" height="46.322" viewBox="0 0 59.523 46.322">
    <path data-name="Compound Path" d="M1128.193 1464.7v-3.064a1.783 1.783 0 0 0-1.613-1.937 1.806 1.806 0 0 0-.277 0 2.01 2.01 0 0 0-1.736.868 1.789 1.789 0 0 0-1.635-.868 1.739 1.739 0 0 0-1.482.715v-.613h-.969v4.9h.969v-2.808a1.143 1.143 0 0 1 1.227-1.277c.714 0 1.123.46 1.123 1.277v2.808h.97v-2.808a1.142 1.142 0 0 1 1.226-1.277c.716 0 1.124.46 1.124 1.277v2.808zm15.934-4.852h-1.788v-1.481h-.97v1.481h-1.021v.869h1.021v2.3c0 1.124.409 1.787 1.634 1.787a2.849 2.849 0 0 0 1.327-.357l-.305-.869a1.668 1.668 0 0 1-.92.255.715.715 0 0 1-.771-.653.774.774 0 0 1 .005-.163v-2.349h1.788zm9.09-.153a1.531 1.531 0 0 0-1.327.715v-.613h-.97v4.9h.97v-2.758c0-.816.408-1.327 1.072-1.327a2.976 2.976 0 0 1 .664.1l.307-.92a3.457 3.457 0 0 0-.716-.099zm-13.737.511a3.508 3.508 0 0 0-1.992-.511c-1.225 0-1.991.562-1.991 1.532 0 .817.562 1.277 1.634 1.43l.512.05c.561.1.918.307.918.563 0 .357-.408.612-1.175.612a2.683 2.683 0 0 1-1.633-.51l-.511.766a3.706 3.706 0 0 0 2.094.613c1.431 0 2.2-.663 2.2-1.583s-.612-1.277-1.685-1.43l-.511-.051c-.459-.051-.868-.2-.868-.51s.409-.614.97-.614a3.693 3.693 0 0 1 1.533.409zm14.861 2.042a2.41 2.41 0 0 0 2.259 2.553 2.472 2.472 0 0 0 .295 0 2.561 2.561 0 0 0 1.736-.561l-.51-.767a2.038 2.038 0 0 1-1.276.459 1.639 1.639 0 0 1 0-3.268 2.041 2.041 0 0 1 1.276.46l.51-.766a2.548 2.548 0 0 0-1.736-.562 2.289 2.289 0 0 0-2.554 2.452zm-6.894-2.554a2.348 2.348 0 0 0-2.4 2.554 2.4 2.4 0 0 0 2.24 2.55 2.086 2.086 0 0 0 .262 0 3.125 3.125 0 0 0 1.992-.664l-.511-.714a2.442 2.442 0 0 1-1.431.51 1.435 1.435 0 0 1-1.48-1.276h3.626v-.408a2.3 2.3 0 0 0-2.298-2.553zm0 .919a1.221 1.221 0 0 1 1.275 1.163v.063h-2.655a1.311 1.311 0 0 1 1.38-1.227zm-13.227 1.635v-2.452h-.97v.613a1.88 1.88 0 0 0-1.583-.715 2.553 2.553 0 1 0 0 5.107 1.878 1.878 0 0 0 1.583-.714v.612h.97zm-3.983 0a1.532 1.532 0 1 1 1.532 1.634 1.5 1.5 0 0 1-1.537-1.464 1.265 1.265 0 0 1 .004-.171zm37.741-2.554a1.531 1.531 0 0 0-1.328.715v-.613h-.97v4.9h.97v-2.758c0-.816.409-1.327 1.072-1.327a2.982 2.982 0 0 1 .664.1l.306-.92a3.427 3.427 0 0 0-.715-.098zm7.864 4.289a.321.321 0 0 1 .206.052c.051 0 .1.052.153.1s.1.1.1.154.05.1.05.2a.3.3 0 0 1-.05.2c-.052.051-.052.1-.1.153s-.1.1-.153.1-.1.051-.206.051a.307.307 0 0 1-.2-.051c-.05-.051-.1-.051-.153-.1s-.1-.1-.1-.153-.051-.1-.051-.2a.31.31 0 0 1 .051-.2c.052-.051.052-.1.1-.154s.1-.1.153-.1.147-.053.198-.053zm0 .868a.2.2 0 0 0 .154-.051.112.112 0 0 0 .1-.1l.1-.1c0-.051.051-.1.051-.153a.185.185 0 0 0-.051-.153.112.112 0 0 0-.1-.1l-.1-.1c-.051 0-.1-.052-.154-.052a.184.184 0 0 0-.152.052.111.111 0 0 0-.1.1l-.1.1c0 .051-.05.1-.05.153a.185.185 0 0 0 .05.153.112.112 0 0 0 .1.1l.1.1a.192.192 0 0 0 .15.05zm.051-.561a.191.191 0 0 1 .155.051c.051.051.051.051.051.1s0 .051-.051.1a.182.182 0 0 1-.1.051l.153.153h-.153l-.155-.153h-.05v.153h-.1v-.459zm-.1.051v.1h.155v-.1zm-11.592-2.093v-2.452h-.97v.613a1.88 1.88 0 0 0-1.583-.715 2.553 2.553 0 0 0 0 5.107 1.878 1.878 0 0 0 1.583-.714v.612h.97zm-3.932 0a1.532 1.532 0 1 1 1.532 1.634 1.476 1.476 0 0 1-1.536-1.635zm13.839 0v-4.393h-.969v2.554a1.881 1.881 0 0 0-1.584-.715 2.553 2.553 0 0 0 0 5.107 1.879 1.879 0 0 0 1.584-.714v.612h.969zm-3.983 0a1.532 1.532 0 1 1 1.532 1.634 1.5 1.5 0 0 1-1.538-1.464c0-.056 0-.113.006-.169z" transform="translate(-1117.442 -1418.684)" style="fill:#fff"/>
    <g data-name="Group">
        <path data-name="Rectangle 186" transform="translate(20.914 3.933)" style="fill:#ff5f00" d="M0 0h17.721v28.905H0z"/>
        <path data-name="Path" d="M1139.72 1430.948a18.438 18.438 0 0 1 7-14.453 18.385 18.385 0 1 0 0 28.9 18.435 18.435 0 0 1-7-14.447z" transform="translate(-1116.967 -1412.562)" style="fill:#eb001b"/>
        <path data-name="Path 100" d="M1183.669 1446.877v-.614h.255v-.1h-.613v.1h.256v.614zm1.226 0v-.716h-.2l-.2.511-.2-.511h-.2v.716h.153v-.561l.2.459h.153l.205-.459v.561z" transform="translate(-1125.934 -1417.103)" style="fill:#f79e1b"/>
        <path data-name="Path 101" d="M1181.147 1430.95a18.385 18.385 0 0 1-29.723 14.452 18.424 18.424 0 0 0 0-28.9 18.385 18.385 0 0 1 29.723 14.452z" transform="translate(-1121.624 -1412.565)" style="fill:#f79e1b"/>
    </g>
</svg>
