<svg xmlns="http://www.w3.org/2000/svg" width="129.389" height="27.961" viewBox="0 0 129.389 27.961">
    <path data-name="Path 134" d="M-442.183 973.225a6.165 6.165 0 0 1 4.075 1.112c3.57 2.7 4.425 7.175.411 10.608a24.411 24.411 0 0 1-4 2.535c-2.43 1.364-4.9 2.653-7.356 3.972a1.844 1.844 0 0 1-2.5-.6 1.8 1.8 0 0 1 .412-2.587c1.226-.763 2.552-1.364 3.826-2.051.891-.481 1.768-.989 2.65-1.489q1.6-.906 3.192-1.818a3.157 3.157 0 0 0 1.722-3.594 3.438 3.438 0 0 0-3.181-2.64 2.657 2.657 0 0 0-1.26.338c-1.607.843-3.195 1.725-4.782 2.6a1.908 1.908 0 0 1-2.615-.583 1.8 1.8 0 0 1 .656-2.575c1.308-.816 2.644-1.584 3.962-2.383a3.01 3.01 0 0 0 1.086-4.268 3.072 3.072 0 0 0-4.2-1.416c-1.184.6-2.3 1.339-3.481 1.953a5.759 5.759 0 0 1-1.873.664 1.757 1.757 0 0 1-1.793-1.32 1.983 1.983 0 0 1 .748-2.245c1.812-1.04 3.6-2.15 5.491-3.013a7.3 7.3 0 0 1 5.56-.247c2.288.8 4.962 4.883 3.538 8.3-.086.212-.164.422-.288.747z" transform="translate(462.424 -963.744)" style="fill:#fff"/>
    <path data-name="Path 135" d="M-353.078 988.834c-.549 1.062-1.109 2.117-1.642 3.187-.277.557-.595 1.032-1.291 1.058a1.507 1.507 0 0 1-1.451-1.028q-.689-1.39-1.39-2.773c-.092-.183-.2-.356-.4-.693-.017.353-.032.528-.032.7 0 1.607.013 3.214-.011 4.821a1.284 1.284 0 0 1-1.4 1.43 1.307 1.307 0 0 1-1.305-1.468q-.013-5.044 0-10.087a1.369 1.369 0 0 1 .938-1.483 1.371 1.371 0 0 1 1.684.781c.945 1.743 1.85 3.508 2.772 5.263l.38.713c.478-.9.916-1.724 1.349-2.549.54-1.027 1.075-2.058 1.617-3.084a6.12 6.12 0 0 1 .36-.6 1.3 1.3 0 0 1 1.387-.556 1.327 1.327 0 0 1 1.078 1.039 3.643 3.643 0 0 1 .09.941q.009 4.6 0 9.2a4.876 4.876 0 0 1-.018.571c-.115.971-.489 1.352-1.279 1.316a1.335 1.335 0 0 1-1.329-1.465c-.013-1.5 0-3 0-4.5v-.7z" transform="translate(398.295 -976.319)" style="fill:#f69220"/>
    <path data-name="Path 136" d="M-221.517 989.545a3.612 3.612 0 0 1 .787 5.341 3.306 3.306 0 0 1-2.5 1.192 59.827 59.827 0 0 1-4.562-.013c-1.054-.04-1.362-.42-1.364-1.489q-.011-4.912 0-9.823c0-1.113.38-1.485 1.5-1.47 1.582.021 3.172-.02 4.743.131a2.979 2.979 0 0 1 2.741 2.36 3.115 3.115 0 0 1-1.267 3.671.405.405 0 0 0-.078.1zm-5.038 1.231v3.032c1 0 1.946.042 2.889-.013a1.434 1.434 0 0 0 1.343-1.424 1.351 1.351 0 0 0-1.141-1.572c-1.016-.089-2.046-.023-3.091-.023zm-.006-5.31v2.913c.968 0 1.894.046 2.813-.015a1.312 1.312 0 0 0 1.241-1.416 1.342 1.342 0 0 0-1.2-1.464c-.942-.075-1.893-.018-2.854-.018z" transform="translate(308.909 -976.891)" style="fill:#fff"/>
    <path data-name="Path 137" d="M-462.146 997.682a1.924 1.924 0 0 1-1.348 2.083 1.7 1.7 0 0 1-1.977-.882q-2.87-4.918-5.717-9.849c-.487-.839-.986-1.672-1.457-2.52a1.782 1.782 0 0 1 .6-2.529 1.781 1.781 0 0 1 2.478.8q3.334 5.709 6.653 11.429c.32.554.596 1.137.768 1.468z" transform="translate(472.928 -977.207)" style="fill:#f69220"/>
    <path data-name="Path 138" d="M-260.417 986.827a3.348 3.348 0 0 1 2.759-.714 2.967 2.967 0 0 1 2.593 2.987c.064 1.836.032 3.676.018 5.515a1.06 1.06 0 0 1-1.094 1.079 1.123 1.123 0 0 1-1.383-.891 3.8 3.8 0 0 1-.062-.754c-.005-1.416.006-2.833-.006-4.248a1.38 1.38 0 0 0-1.414-1.46 1.345 1.345 0 0 0-1.4 1.4c-.026 1.521 0 3.043-.014 4.565-.009.967-.41 1.391-1.253 1.386a1.111 1.111 0 0 1-1.213-1.183q-.016-5.358 0-10.716a1.082 1.082 0 0 1 1.118-1.126c.746-.036 1.232.293 1.293.985.068.777.044 1.561.057 2.341.005.246.001.488.001.834z" transform="translate(331.606 -976.477)" style="fill:#f69220"/>
    <path data-name="Path 139" d="M-126.253 998.57c-.162 2.046 1.966 2.538 3.292 1.848.2-.106.389-.252.588-.371a.9.9 0 0 1 1.3.188.921.921 0 0 1-.135 1.354 3.232 3.232 0 0 1-2.134 1 9.65 9.65 0 0 1-2.449-.12 3.31 3.31 0 0 1-2.562-2.458 7.036 7.036 0 0 1 .026-4.3 3.761 3.761 0 0 1 3.846-2.7 3.834 3.834 0 0 1 3.784 2.8 5.976 5.976 0 0 1 .245 1.43 1.13 1.13 0 0 1-1.257 1.318c-1.501.026-2.999.011-4.544.011zm.035-1.561h3.49c-.217-1.43-.805-2.033-1.878-1.965-1.004.064-1.576.756-1.613 1.966z" transform="translate(241.298 -983.438)" style="fill:#fff"/>
    <path data-name="Path 140" d="M-193.512 998.56a2.12 2.12 0 0 0 3.358 1.808c.221-.123.425-.276.648-.395a.868.868 0 0 1 1.188.233.9.9 0 0 1-.04 1.267 3.531 3.531 0 0 1-2.343 1.128 7.158 7.158 0 0 1-1.707-.015 3.649 3.649 0 0 1-3.366-3.326 6.843 6.843 0 0 1 .361-3.977 3.829 3.829 0 0 1 4.258-2.242 3.923 3.923 0 0 1 3.393 3.5c.014.1.021.21.032.315.136 1.253-.266 1.7-1.544 1.706h-3.615zm3.565-1.536c-.164-1.425-.908-2.142-2-1.985a1.652 1.652 0 0 0-1.446 1.985z" transform="translate(286.534 -983.42)" style="fill:#fff"/>
    <path data-name="Path 141" d="M-313.944 1001.9c-1.671 1.181-3.676 1.021-4.683-.485a3.873 3.873 0 0 1-.634-1.878c-.085-1.793-.047-3.593-.024-5.39a1.15 1.15 0 0 1 1.445-1.175c.631.094.835.363.831 1.011a359.195 359.195 0 0 0 0 4.757 1.557 1.557 0 0 0 1.6 1.571c.893.008 1.427-.548 1.438-1.558.017-1.5-.007-3 .011-4.5a1.214 1.214 0 0 1 1.721-1.212.755.755 0 0 1 .568.8c-.019 2.41-.042 4.821.01 7.23a2.048 2.048 0 0 1-.754 1.448c-.123.141-.611.055-.883-.053a2.591 2.591 0 0 1-.646-.566z" transform="translate(369.568 -983.389)" style="fill:#f69220"/>
    <path data-name="Path 142" d="M-290.2 998.006a4.707 4.707 0 0 1 1.6-3.953 4.5 4.5 0 0 1 5.149-.059 1.235 1.235 0 0 1 .368 1.768 1.179 1.179 0 0 1-1.692.172c-1.288-.808-2.357-.388-2.7 1.1a4.065 4.065 0 0 0 .159 2.606 1.572 1.572 0 0 0 2.321.744 5.591 5.591 0 0 0 .479-.306.948.948 0 0 1 1.362.151 1.016 1.016 0 0 1 .132 1.386 3.153 3.153 0 0 1-2.639 1.257c-2.815.113-4.588-1.798-4.539-4.866z" transform="translate(349.977 -983.573)" style="fill:#f69220"/>
    <path data-name="Path 143" d="M-147.612 990.382c-1.17-.123-1.5-.356-1.491-.992.01-.607.305-.8 1.491-.912 0-.487-.007-.986 0-1.484.014-.879.419-1.348 1.163-1.361s1.166.451 1.2 1.327c.02.485.023.97.037 1.456 0 .015.025.03.069.081.672.159 1.854-.333 1.795 1-.052 1.173-1.112.717-1.9.888V994.631c0 .821.1.926.922 1.041.882.123 1.278.758.884 1.463a.883.883 0 0 1-.5.422c-1.652.324-3.649-.158-3.67-2.644-.01-1.498 0-2.996 0-4.531z" transform="translate(255.04 -978.472)" style="fill:#fff"/>
    <path data-name="Path 144" d="M-166.9 990.35c-1.172-.119-1.506-.361-1.479-1.008.026-.613.328-.808 1.479-.88a8.627 8.627 0 0 1 .022-1.533 1.884 1.884 0 0 1 .541-1.118 1.122 1.122 0 0 1 1.783.906c.036.564.007 1.133.007 1.714.752.219 1.989-.339 1.911 1.05-.066 1.178-1.134.685-1.908.878v1.387c0 .972.014 1.944 0 2.916-.011.615.222.945.873.982.53.03 1.011.183 1.063.85a.9.9 0 0 1-.808 1.081 2.692 2.692 0 0 1-3.479-2.832c-.012-1.453-.005-2.907-.005-4.393z" transform="translate(268.012 -978.44)" style="fill:#fff"/>
    <path data-name="Path 145" d="M-95.671 994.157a3.139 3.139 0 0 1 2.71-.876 3.169 3.169 0 0 1 1.286.6 1.029 1.029 0 0 1 .193 1.473 1.084 1.084 0 0 1-1.4.361c-.176-.069-.345-.159-.522-.227a1.508 1.508 0 0 0-2.2 1.484c-.016 1.373 0 2.746-.006 4.119a4.925 4.925 0 0 1-.036.695 1.112 1.112 0 0 1-1.281 1.016 1.036 1.036 0 0 1-1.044-1.118c-.025-1.077-.008-2.155-.008-3.232v-3.676c0-.872.24-1.259.865-1.427.6-.166.969.033 1.443.808z" transform="translate(220.648 -983.583)" style="fill:#fff"/>
</svg>
