<svg id="Group_5897" data-name="Group 5897" xmlns="http://www.w3.org/2000/svg" width="20.666" height="23.029" viewBox="0 0 20.666 23.029">
  <path id="Path_7528" data-name="Path 7528" d="M1002.4,5214.53a.651.651,0,0,1-.388-.129l-4.482-3.335v-6.442a.65.65,0,0,1,1.3,0v5.789l3.958,2.945a.651.651,0,0,1-.389,1.172Z" transform="translate(-988.495 -5196.871)" fill="#fff"/>
  <path id="Path_7527" data-name="Path 7527" d="M986.905,5186.144a1.8,1.8,0,0,0-.53-1.28l-.8-.8a1.813,1.813,0,0,0-2.56,0l-.859.858a9.762,9.762,0,0,0-5.6-2.126.64.64,0,0,0,.022-.157v-1.959h2.64a.65.65,0,0,0,0-1.3h-6.58a.65.65,0,0,0,0,1.3h2.64v1.959a.643.643,0,0,0,.027.176,9.813,9.813,0,1,0,9.762,5.912l1.305-1.305A1.8,1.8,0,0,0,986.905,5186.144Zm-10.852,14.969a8.513,8.513,0,1,1,8.514-8.513A8.523,8.523,0,0,1,976.053,5201.113Zm9.4-14.607-1.011,1.011a9.871,9.871,0,0,0-1.324-1.714l.816-.816a.511.511,0,0,1,.722,0l.8.8a.51.51,0,0,1,0,.722Z" transform="translate(-966.239 -5179.383)" fill="#fff"/>
</svg>
