<svg xmlns="http://www.w3.org/2000/svg" width="85.086" height="27.604" viewBox="0 0 85.086 27.604">
    <g data-name="Group 13">
        <path data-name="Path 102" d="M1038.241 1388.519h-6.941l4.339-26.667h6.943z" transform="translate(-1001.355 -1361.375)" style="fill:#0066b2"/>
        <path data-name="Path 103" d="m1024.73 1361.852-6.619 18.341-.783-3.95-2.337-11.992s-.282-2.4-3.294-2.4h-10.942l-.128.45a25.936 25.936 0 0 1 7.262 3.049l6.031 23.167h7.234l11.046-26.667z" transform="translate(-1000.628 -1361.375)" style="fill:#0066b2"/>
        <path data-name="Path 104" d="M1080.807 1388.519h6.375l-5.557-26.667h-5.583a3.189 3.189 0 0 0-3.2 1.987l-10.354 24.68h7.236l1.448-3.961h8.825zm-7.64-9.432 3.649-9.98 2.052 9.98z" transform="translate(-1002.095 -1361.375)" style="fill:#0066b2"/>
        <path data-name="Path 105" d="m1062.558 1368.254.99-5.728a20.045 20.045 0 0 0-6.244-1.163c-3.445 0-11.628 1.507-11.628 8.828 0 6.89 9.6 6.976 9.6 10.593s-8.615 2.972-11.457.69l-1.032 5.987a19.441 19.441 0 0 0 7.837 1.507c4.738 0 11.886-2.454 11.886-9.13 0-6.934-9.689-7.579-9.689-10.594s6.765-2.628 9.737-.99z" transform="translate(-1001.628 -1361.363)" style="fill:#0066b2"/>
    </g>
    <path data-name="Path 106" d="m1017.329 1376.245-2.337-11.992s-.282-2.4-3.294-2.4h-10.942l-.128.45a26.918 26.918 0 0 1 10.3 5.175 20.789 20.789 0 0 1 6.401 8.767z" transform="translate(-1000.628 -1361.374)" style="fill:#f9a533"/>
</svg>
