<svg xmlns="http://www.w3.org/2000/svg" width="377.253" height="203.698" viewBox="0 0 377.253 203.698">
    <g data-name="Group 7559">
        <text data-name="500" transform="translate(73.253 148)" style="letter-spacing:-.01em;font-family:Montserrat-Black,Montserrat;font-weight:800;font-size:153px;fill:#ba041f"><tspan x="0" y="0">500</tspan></text>
        <text data-name="SPORTS BONUS" transform="translate(3.309 192.698)" style="font-size:42px;fill:#fff;letter-spacing:-.01em;font-family:Montserrat-Black,Montserrat;font-weight:800"><tspan x="0" y="0">SPORTS BONUS</tspan></text>
        <g data-name="Group 7558">
            <text data-name="$" transform="translate(5.791 102.513)" style="font-size:87px;letter-spacing:-.01em;font-family:Montserrat-Black,Montserrat;font-weight:800;fill:#ba041f"><tspan x="0" y="0">$</tspan></text>
            <path data-name="Path 90" d="M326.978 904.3c-13.068-.056-26.154 5.27-39.222 5.213-3.277-.013-10.747-1-11.108-1-2.683-.32-3.117.464-3.246 2.361l-.17 27.919a2.826 2.826 0 0 0 2.465 2.578 71.594 71.594 0 0 0 11.927 1.282c13.058.406 26.15-5.127 39.216-5.073a39.124 39.124 0 0 1 9.824 1.225 22.82 22.82 0 0 0 2.289.121 1.931 1.931 0 0 0 2.169-2.043l.149-28.8c0-1.092-.41-1.512-1.857-2.02a59.771 59.771 0 0 0-12.436-1.763z" transform="translate(-273.232 -786.521)" style="fill:#00a80c"/>
            <text transform="translate(9.1 141.4)" style="font-size:18px;fill:#fff;font-family:Montserrat-Black,Montserrat;font-weight:800"><tspan x="0" y="0">CAD</tspan></text>
        </g>
    </g>
</svg>
