<svg xmlns="http://www.w3.org/2000/svg" width="308.504" height="55.99" viewBox="0 0 308.504 55.99">
    <defs>
        <clipPath id="o94608i53a">
            <path data-name="Rectangle 905" d="M0 0h308.504v55.99H0z"/>
        </clipPath>
        <clipPath id="uw2mrh6zob">
            <path data-name="Rectangle 225" style="fill:none" d="M0 0h62.308v51.525H0z"/>
        </clipPath>
    </defs>
    <g data-name="icon-en-200freechips" style="clip-path:url(#o94608i53a)">
        <g data-name="Group 44">
            <g data-name="Group 43" style="clip-path:url(#uw2mrh6zob)" transform="translate(2.038 2.24)">
                <path data-name="Path 247" d="M16.4 26.444v2.781h-2.483v-2.71a11.781 11.781 0 0 1-6.185-1.985L9.1 21.5a10.035 10.035 0 0 0 4.818 1.762v-4.147c-2.759-.672-5.837-1.59-5.837-5.142 0-2.632 1.913-4.893 5.837-5.339V5.877H16.4v2.707a11.219 11.219 0 0 1 5.04 1.516l-1.24 3.055a10.19 10.19 0 0 0-3.8-1.294v4.224c2.757.645 5.787 1.568 5.787 5.065 0 2.584-1.887 4.821-5.787 5.293m-2.483-10.979v-3.527c-1.316.3-1.839 1.019-1.839 1.836 0 .87.746 1.344 1.839 1.69m4.272 5.986c0-.87-.722-1.344-1.788-1.714v3.428c1.24-.273 1.788-.918 1.788-1.714" transform="translate(10.804 8.212)" style="fill:#ba041f"/>
                <path data-name="Path 248" d="M35.617 23.263A15.01 15.01 0 1 1 27.752 7.53a16.492 16.492 0 0 1 .4-2.323 17.257 17.257 0 1 0 9.578 19.169 16.552 16.552 0 0 1-2.111-1.113" transform="translate(4.934 4.934)" style="fill:#fff"/>
                <path data-name="Path 249" d="M48.762 30.654c-.026.132-.127.489-.127.489a23.332 23.332 0 0 1-2.9 6.981l-1.782-1.783a2.184 2.184 0 0 0-3.313.249 18.678 18.678 0 0 1-1.865 2.184 18.273 18.273 0 0 1-2.184 1.863 2.161 2.161 0 0 0-.885 1.585 2.191 2.191 0 0 0 .635 1.731l1.784 1.784a23.306 23.306 0 0 1-6.981 2.9V46.1a2.189 2.189 0 0 0-2.179-2.194 2.326 2.326 0 0 0-.34.026 18.34 18.34 0 0 1-5.725 0 2.27 2.27 0 0 0-.336-.026A2.189 2.189 0 0 0 20.38 46.1v2.531a23.306 23.306 0 0 1-6.981-2.9l1.785-1.781a2.189 2.189 0 0 0 .635-1.728 2.154 2.154 0 0 0-.885-1.585 18.657 18.657 0 0 1-2.184-1.863 18.463 18.463 0 0 1-1.863-2.184 2.184 2.184 0 0 0-3.313-.249l-1.782 1.786a23.332 23.332 0 0 1-2.9-6.984H5.42a2.2 2.2 0 0 0 1.68-.772 2.174 2.174 0 0 0 .494-1.747 18.085 18.085 0 0 1 0-5.722 2.174 2.174 0 0 0-.494-1.748 2.2 2.2 0 0 0-1.68-.774H2.891a23.306 23.306 0 0 1 2.9-6.981l1.783 1.785a2.184 2.184 0 0 0 3.313-.249 18.271 18.271 0 0 1 4.046-4.046 2.164 2.164 0 0 0 .889-1.589 2.2 2.2 0 0 0-.637-1.729L13.4 5.792a23.306 23.306 0 0 1 6.98-2.9v2.531a2.19 2.19 0 0 0 2.181 2.192 1.988 1.988 0 0 0 .336-.026 18.34 18.34 0 0 1 5.725 0 2.036 2.036 0 0 0 .34.026A2.149 2.149 0 0 0 30.5 6.97a2.178 2.178 0 0 0 .64-1.549v-2.53a23.321 23.321 0 0 1 4.514 1.585 16.524 16.524 0 0 1 1.484-1.812A25.59 25.59 0 0 0 26.9.026c-.056 0-.112-.005-.168-.005-.127 0-.249-.012-.378-.014C26.157 0 25.96 0 25.761 0s-.392 0-.59.007c-.127 0-.254.01-.381.015-.056 0-.112 0-.168.005A25.6 25.6 0 0 0 11.03 4.641c-.024.015-.045.024-.067.039a26.245 26.245 0 0 0-3.416 2.867 25.846 25.846 0 0 0-2.862 3.415c-.017.022-.029.048-.043.069A25.632 25.632 0 0 0 .024 24.623c0 .056 0 .112-.005.168l-.012.379q-.007.3-.007.592c0 .2 0 .4.007.592.005.127.01.252.012.379 0 .056 0 .112.005.168A25.632 25.632 0 0 0 4.639 40.5c.015.024.026.048.041.069a25.536 25.536 0 0 0 6.281 6.279c.026.019.05.031.077.048A25.615 25.615 0 0 0 24.623 51.5l.168.007.381.012c.2.005.4.007.59.007s.4 0 .592-.007l.379-.012.167-.007a25.6 25.6 0 0 0 13.585-4.607c.026-.017.053-.029.079-.048a25.862 25.862 0 0 0 3.415-2.865 26.252 26.252 0 0 0 2.867-3.415l.039-.069a25.628 25.628 0 0 0 4.188-9.932c-.6.065-2.311.091-2.311.091M22.65 2.479a23.96 23.96 0 0 1 2.28-.194c.034 0 .065-.005.1-.005.247-.007.489-.012.733-.012s.489.005.733.012a.631.631 0 0 1 .1.005c.758.029 1.517.091 2.282.194v2.855a20.533 20.533 0 0 0-6.226 0zM11.5 7.1l2.016 2.011a20.61 20.61 0 0 0-4.4 4.4L7.105 11.5a23.678 23.678 0 0 1 4.4-4.4M2.284 26.6l-.005-.1c-.007-.247-.012-.492-.012-.736s.005-.487.012-.733l.005-.1c.029-.755.091-1.517.194-2.28h2.856a20.74 20.74 0 0 0 0 6.226H2.479c-.1-.763-.168-1.525-.194-2.28M7.1 40.02 9.114 38a20.38 20.38 0 0 0 4.4 4.4L11.5 44.421a23.677 23.677 0 0 1-4.4-4.4m21.775 9.027q-1.147.155-2.282.194l-.1.005c-.245.007-.489.012-.733.012s-.487-.005-.733-.012l-.1-.005a23.016 23.016 0 0 1-2.28-.194v-2.856a20.533 20.533 0 0 0 6.226 0zm11.145-4.626L38 42.407a20.416 20.416 0 0 0 2.368-2.031A20.664 20.664 0 0 0 42.406 38l2.016 2.016a23.69 23.69 0 0 1-4.4 4.4" style="fill:#fff"/>
                <path data-name="Path 250" d="M41.206 13.484A13.052 13.052 0 1 1 28.154.433a13.053 13.053 0 0 1 13.052 13.051" transform="translate(21.103 .605)" style="fill:#00a80c"/>
                <path data-name="Path 251" d="m23.946 15.936 9.686-9.686a.84.84 0 0 0 0-1.189L32.44 3.87a.844.844 0 0 0-1.191 0l-7.895 7.895-3.687-3.687a.844.844 0 0 0-1.191 0l-1.19 1.192a.84.84 0 0 0 0 1.191l5.473 5.473a.84.84 0 0 0 1.189 0" transform="translate(23.801 5.064)" style="fill:#fff"/>
            </g>
        </g>
        <path data-name="Path 1149" d="M10.5 10.123H2.01V27.76h5.947v-4.333H10.5c4.913 0 8.037-2.57 8.037-6.652s-3.123-6.652-8.037-6.652zm-.378 8.718H7.957v-4.132h2.167c1.638 0 2.419.781 2.419 2.066s-.782 2.066-2.42 2.066zm10.1 8.919h13.913v-4.611h-7.962V10.123h-5.946zm23.608.4c5.417 0 8.592-3.049 8.592-8.342v-9.7h-5.841v9.524c0 2.7-1.033 3.7-2.7 3.7s-2.7-1.008-2.7-3.7v-9.519h-5.938v9.7c0 5.292 3.175 8.34 8.592 8.34zm17.637 0c5.467 0 8.214-2.721 8.214-5.946 0-6.5-9.751-4.737-9.751-6.853 0-.6.554-1.109 2.3-1.109a10.88 10.88 0 0 1 4.913 1.31l1.792-4.311a14 14 0 0 0-6.652-1.537c-5.467 0-8.214 2.671-8.214 5.946 0 6.576 9.751 4.787 9.751 7 0 .6-.6.957-2.3.957a12.1 12.1 0 0 1-5.82-1.604l-1.915 4.334a15.771 15.771 0 0 0 7.687 1.816zm31.822-5.946c0-6.5-9.751-4.737-9.751-6.853 0-.6.554-1.109 2.3-1.109a10.881 10.881 0 0 1 4.913 1.31l1.792-4.311a13.161 13.161 0 0 0-5.115-1.461V7.1H83.87v2.744c-4.132.579-6.2 2.973-6.2 5.823 0 6.576 9.751 4.787 9.751 7 0 .6-.6.957-2.3.957a12.1 12.1 0 0 1-5.82-1.613l-1.915 4.334a14.826 14.826 0 0 0 6.475 1.764v2.671h3.559v-2.8c3.908-.673 5.873-3.042 5.873-5.763zm-.05-12.094v4.485h3.023V27.76h5.946V10.123zm13.983 11.388a3.121 3.121 0 0 0-3.326 3.225 2.926 2.926 0 0 0 1.638 2.8l-1.26 4.255h3.527l1.764-3.754a6.91 6.91 0 0 0 .983-3.3 3.121 3.121 0 0 0-3.326-3.222zm11.917 6.652c4.661 0 7.987-3.376 7.987-9.222s-3.323-9.222-7.987-9.222-7.987 3.376-7.987 9.222 3.331 9.225 7.992 9.225zm0-4.762c-1.159 0-2.016-1.058-2.016-4.46s.857-4.46 2.016-4.46 2.016 1.058 2.016 4.46-.855 4.462-2.011 4.462zm17.183 4.762c4.661 0 7.987-3.376 7.987-9.222s-3.326-9.222-7.987-9.222-7.984 3.376-7.984 9.222 3.328 9.225 7.989 9.225zm0-4.762c-1.159 0-2.016-1.058-2.016-4.46s.857-4.46 2.016-4.46 2.016 1.058 2.016 4.46-.852 4.462-2.011 4.462zm17.183 4.762c4.661 0 7.987-3.376 7.987-9.222s-3.32-9.218-7.982-9.218-7.987 3.376-7.987 9.222 3.326 9.221 7.987 9.221zm0-4.762c-1.159 0-2.016-1.058-2.016-4.46s.857-4.46 2.016-4.46 2.016 1.058 2.016 4.46-.852 4.462-2.011 4.462zm31.545-8.79v-4.485h-14.331V27.76h5.946v-5.644h7.357v-4.484h-7.357v-3.024zm12.2 13.152h6.35l-3.7-5.442a5.906 5.906 0 0 0 3.326-5.543c0-4.082-3.124-6.652-8.037-6.652h-8.491V27.76h5.946v-4.434h1.613zm-.025-10.985c0 1.288-.781 2.066-2.419 2.066h-2.167v-4.132h2.167c1.638 0 2.419.781 2.419 2.066zm13.832 6.5v-2.318h7.458v-4.283h-7.458v-2.066h8.494v-4.485h-14.34V27.76h14.664v-4.485zm16.7 0v-2.318h7.458v-4.283h-7.458v-2.066h8.491v-4.485h-14.332V27.76h14.664v-4.485zm-216.63 28.4a9.528 9.528 0 0 0 7.911-3.527L15.291 44.8a4.765 4.765 0 0 1-3.855 2.066c-2.469 0-4.132-1.713-4.132-4.409s1.663-4.409 4.132-4.409a4.765 4.765 0 0 1 3.855 2.066l3.751-3.351a9.524 9.524 0 0 0-7.911-3.527c-5.669 0-9.826 3.807-9.826 9.222s4.157 9.221 9.826 9.221zm22.323-.4h6.15l-7.71-17.637h-5.84l-7.713 17.638h6.047l1.184-3.076h6.7zm-6.248-7.357 1.713-4.434 1.713 4.434zm19.678 7.76c5.467 0 8.214-2.721 8.214-5.946 0-6.5-9.751-4.737-9.751-6.853 0-.6.554-1.109 2.3-1.109a10.881 10.881 0 0 1 4.913 1.31l1.789-4.311a14 14 0 0 0-6.654-1.534c-5.467 0-8.214 2.671-8.214 5.946 0 6.576 9.751 4.787 9.751 7 0 .6-.6.957-2.3.957a12.1 12.1 0 0 1-5.823-1.613l-1.915 4.334a15.843 15.843 0 0 0 7.694 1.82zm9.725-.4h5.946V33.639h-5.942zm20.16-17.639v8.012l-6.7-8.012h-4.89v17.637h5.795v-8.012l6.7 8.012h4.89V33.639zm17.662 18.04c5.745 0 9.952-3.88 9.952-9.222s-4.208-9.222-9.952-9.222-9.952 3.88-9.952 9.222 4.208 9.222 9.952 9.222zm0-4.815c-2.192 0-3.956-1.663-3.956-4.409s1.764-4.409 3.956-4.409 3.956 1.663 3.956 4.409-1.764 4.412-3.956 4.412zm28.294 4.815a9.528 9.528 0 0 0 7.911-3.527l-3.753-3.352a4.765 4.765 0 0 1-3.855 2.066c-2.469 0-4.132-1.713-4.132-4.409s1.663-4.409 4.132-4.409a4.765 4.765 0 0 1 3.855 2.066l3.754-3.351a9.524 9.524 0 0 0-7.911-3.527c-5.669 0-9.826 3.807-9.826 9.222s4.157 9.221 9.826 9.221zm20.811-18.04v6.248h-5.493v-6.248h-5.946v17.637h5.946v-6.5h5.493v6.5h5.946V33.639zm8.568 17.637h5.946V33.639H152.1zm17.06-17.637h-8.494v17.637h5.946v-4.334h2.548c4.913 0 8.037-2.57 8.037-6.652s-3.127-6.651-8.037-6.651zm-.378 8.718h-2.167v-4.132h2.167c1.638 0 2.419.781 2.419 2.066s-.784 2.066-2.422 2.066zm16.931 9.322c5.467 0 8.214-2.721 8.214-5.946 0-6.5-9.751-4.737-9.751-6.853 0-.6.554-1.109 2.3-1.109a10.88 10.88 0 0 1 4.913 1.31l1.792-4.311a14 14 0 0 0-6.66-1.534c-5.467 0-8.214 2.671-8.214 5.946 0 6.576 9.751 4.787 9.751 7 0 .6-.6.957-2.3.957a12.1 12.1 0 0 1-5.82-1.613l-1.915 4.334a15.823 15.823 0 0 0 7.687 1.814z" transform="translate(67.173 -1.445)" style="fill:#fff"/>
    </g>
</svg>
