<svg xmlns="http://www.w3.org/2000/svg" width="372.215" height="162.195" viewBox="0 0 372.215 162.195">
  <g id="Group_7559" data-name="Group 7559" transform="translate(0 -31.174)">
    <path id="_500" data-name="500" d="M48.195-69.309H42.687l.765-10.557H84.915V-107.1H13.77L8.415-42.075H39.474c13.005,0,16.218,3.06,16.218,7.65,0,5.508-5.967,8.415-14.076,8.415a58.065,58.065,0,0,1-28.611-7.8L.765-7.191C12.24-.765,28.305,2.448,42.993,2.448c34.272,0,48.96-18.513,48.96-37.638C91.953-54.162,79.866-69.309,48.195-69.309Zm97.92,71.757c28.305,0,48.5-20.5,48.5-56s-20.2-56-48.5-56-48.5,20.5-48.5,56S117.81,2.448,146.115,2.448Zm0-28.917c-7.038,0-12.24-6.426-12.24-27.081s5.2-27.081,12.24-27.081,12.24,6.426,12.24,27.081S153.153-26.469,146.115-26.469ZM250.461,2.448c28.3,0,48.5-20.5,48.5-56s-20.2-56-48.5-56-48.5,20.5-48.5,56S222.156,2.448,250.461,2.448Zm0-28.917c-7.038,0-12.24-6.426-12.24-27.081s5.2-27.081,12.24-27.081S262.7-74.205,262.7-53.55,257.5-26.469,250.461-26.469Z" transform="translate(73.253 148)" fill="#ba041f"/>
    <path id="SPORTS_BONUS" data-name="SPORTS BONUS" d="M13.356.672c9.114,0,13.692-4.536,13.692-9.912,0-10.836-16.254-7.9-16.254-11.424,0-1.008.924-1.848,3.822-1.848a18.138,18.138,0,0,1,8.19,2.184l2.982-7.182A23.337,23.337,0,0,0,14.7-30.072c-9.114,0-13.692,4.452-13.692,9.912,0,10.962,16.254,7.98,16.254,11.676,0,1.008-1.008,1.6-3.822,1.6a20.17,20.17,0,0,1-9.7-2.688L.546-2.352C3.486-.546,8.442.672,13.356.672ZM43.722-29.4H29.568V0H39.48V-7.224h4.242c8.19,0,13.4-4.284,13.4-11.088S51.912-29.4,43.722-29.4Zm-.63,14.532H39.48v-6.888h3.612c2.73,0,4.032,1.3,4.032,3.444S45.822-14.868,43.092-14.868ZM75.768.672c9.576,0,16.59-6.468,16.59-15.372s-7.014-15.372-16.59-15.372S59.178-23.6,59.178-14.7,66.192.672,75.768.672Zm0-8.022c-3.654,0-6.594-2.772-6.594-7.35s2.94-7.35,6.594-7.35,6.594,2.772,6.594,7.35S79.422-7.35,75.768-7.35ZM113.148,0h10.584l-6.174-9.072a9.846,9.846,0,0,0,5.544-9.24c0-6.8-5.208-11.088-13.4-11.088H95.55V0h9.912V-7.392h2.688Zm-.042-18.312c0,2.142-1.3,3.444-4.032,3.444h-3.612v-6.888h3.612C111.8-21.756,113.106-20.454,113.106-18.312ZM132.384,0H142.3V-21.714h8.61V-29.4H123.774v7.686h8.61ZM164.01.672c9.114,0,13.692-4.536,13.692-9.912,0-10.836-16.254-7.9-16.254-11.424,0-1.008.924-1.848,3.822-1.848a18.138,18.138,0,0,1,8.19,2.184l2.982-7.182a23.337,23.337,0,0,0-11.088-2.562c-9.114,0-13.692,4.452-13.692,9.912,0,10.962,16.254,7.98,16.254,11.676,0,1.008-1.008,1.6-3.822,1.6a20.17,20.17,0,0,1-9.7-2.688L151.2-2.352C154.14-.546,159.1.672,164.01.672Zm51.912-16.044A6.851,6.851,0,0,0,220-21.714c0-4.452-3.78-7.686-11.886-7.686H192.4V0H208.95c8.106,0,12.432-2.982,12.432-8.106C221.382-11.592,219.366-14.112,215.922-15.372Zm-9.156-7.1c2.226,0,3.234.756,3.234,2.184s-1.008,2.184-3.234,2.184h-4.62V-22.47ZM208.11-6.93h-5.964v-4.62h5.964c2.184,0,3.276.8,3.276,2.31S210.294-6.93,208.11-6.93Zm31.752,7.6c9.576,0,16.59-6.468,16.59-15.372s-7.014-15.372-16.59-15.372S223.272-23.6,223.272-14.7,230.286.672,239.862.672Zm0-8.022c-3.654,0-6.594-2.772-6.594-7.35s2.94-7.35,6.594-7.35,6.594,2.772,6.594,7.35S243.516-7.35,239.862-7.35Zm39.1-22.05v13.356L267.792-29.4h-8.148V0h9.66V-13.356L280.476,0h8.148V-29.4ZM307.062.672c9.03,0,14.322-5.082,14.322-13.9V-29.4H311.64v15.876c0,4.494-1.722,6.174-4.494,6.174s-4.494-1.68-4.494-6.174V-29.4H292.74v16.17C292.74-4.41,298.032.672,307.062.672Zm29.4,0c9.114,0,13.692-4.536,13.692-9.912,0-10.836-16.254-7.9-16.254-11.424,0-1.008.924-1.848,3.822-1.848a18.138,18.138,0,0,1,8.19,2.184l2.982-7.182a23.337,23.337,0,0,0-11.088-2.562c-9.114,0-13.692,4.452-13.692,9.912,0,10.962,16.254,7.98,16.254,11.676,0,1.008-1.008,1.6-3.822,1.6a20.17,20.17,0,0,1-9.7-2.688l-3.192,7.224C326.592-.546,331.548.672,336.462.672Z" transform="translate(3.309 192.698)" fill="#fff"/>
    <g id="Group_7558" data-name="Group 7558">
      <path id="_" data-name="$" d="M56.028-19.14c0-22.446-33.669-16.356-33.669-23.664,0-2.088,1.914-3.828,7.917-3.828a37.571,37.571,0,0,1,16.965,4.524l6.177-14.877a45.444,45.444,0,0,0-17.661-5.046V-71.34H23.49v9.483c-14.268,2-21.4,10.266-21.4,20.1,0,22.707,33.669,16.53,33.669,24.186,0,2.088-2.088,3.306-7.917,3.306a41.782,41.782,0,0,1-20.1-5.568L1.131-4.872C6.351-1.653,14.79.7,23.49,1.218V10.44H35.757V.783C49.242-1.566,56.028-9.744,56.028-19.14Z" transform="translate(5.791 102.513)" fill="#ba041f"/>
      <path id="Path_90" data-name="Path 90" d="M326.978,904.3c-13.068-.056-26.154,5.27-39.222,5.213-3.277-.013-10.747-1-11.108-1-2.683-.32-3.117.464-3.246,2.361l-.17,27.919a2.826,2.826,0,0,0,2.465,2.578,71.6,71.6,0,0,0,11.927,1.282c13.058.406,26.15-5.127,39.216-5.073a39.119,39.119,0,0,1,9.824,1.225,22.847,22.847,0,0,0,2.289.121,1.931,1.931,0,0,0,2.169-2.043l.149-28.8c0-1.092-.41-1.512-1.857-2.02a59.771,59.771,0,0,0-12.436-1.763Z" transform="translate(-273.232 -786.521)" fill="#00a80c"/>
      <path id="Path_7874" data-name="Path 7874" d="M7.542.288a6.807,6.807,0,0,0,5.652-2.52L10.512-4.626A3.4,3.4,0,0,1,7.758-3.15,2.872,2.872,0,0,1,4.806-6.3,2.872,2.872,0,0,1,7.758-9.45a3.4,3.4,0,0,1,2.754,1.476l2.682-2.394a6.807,6.807,0,0,0-5.652-2.52c-4.05,0-7.02,2.718-7.02,6.588S3.492.288,7.542.288ZM23.67,0h4.392L22.554-12.6H18.378L12.87,0h4.32l.846-2.2h4.788ZM19.206-5.256,20.43-8.424l1.224,3.168ZM28.746,0h6.21c4.212,0,7.11-2.394,7.11-6.3s-2.9-6.3-7.11-6.3h-6.21Zm4.248-3.312V-9.288h1.782A2.775,2.775,0,0,1,37.782-6.3a2.775,2.775,0,0,1-3.006,2.988Z" transform="translate(9.1 141.4)" fill="#fff"/>
    </g>
  </g>
</svg>
