<svg xmlns="http://www.w3.org/2000/svg" xmlns:xlink="http://www.w3.org/1999/xlink" width="161.04" height="66" viewBox="0 0 161.04 66">
  <defs>
    <clipPath id="clip-path">
      <rect id="Прямоугольник_334" data-name="Прямоугольник 334" width="161.04" height="66"/>
    </clipPath>
  </defs>
  <g id="icon-en-asseenontv" transform="translate(80.52 33)">
    <g id="icon-en-asseenontv-2" data-name="icon-en-asseenontv" transform="translate(-80.52 -33)" clip-path="url(#clip-path)">
      <g id="icon-asseenontv" transform="translate(3.3 2.631)">
        <g id="icon-asseenontv-2" data-name="icon-asseenontv" transform="translate(0)">
          <path id="Path_256" d="M113.046,39.92h4.818l-6.072-13.86h-4.62L101.1,39.92h4.752l.924-2.442h5.28Zm-4.95-5.742,1.32-3.5,1.32,3.5Zm15.972,6.072c4.29,0,6.468-2.112,6.468-4.686,0-5.082-7.656-3.7-7.656-5.412,0-.462.462-.858,1.782-.858a9.042,9.042,0,0,1,3.894,1.056l1.386-3.366a10.266,10.266,0,0,0-5.214-1.188c-4.29,0-6.468,2.112-6.468,4.686,0,5.148,7.656,3.762,7.656,5.478,0,.462-.462.726-1.782.726a9.266,9.266,0,0,1-4.554-1.254l-1.518,3.432a12.738,12.738,0,0,0,6.006,1.386Zm19.6,0c4.29,0,6.468-2.112,6.468-4.686,0-5.082-7.656-3.7-7.656-5.412,0-.462.462-.858,1.782-.858a8.523,8.523,0,0,1,3.828,1.056l1.386-3.366a10.266,10.266,0,0,0-5.214-1.188c-4.29,0-6.468,2.112-6.468,4.686,0,5.148,7.656,3.762,7.656,5.478,0,.462-.462.726-1.782.726a9.266,9.266,0,0,1-4.554-1.254L137.6,38.864a13,13,0,0,0,6.072,1.386Zm12.738-3.828V34.574h5.874V31.208h-5.874v-1.65h6.666v-3.5h-11.22V39.92H163.4v-3.5Zm13.662,0V34.574h5.874V31.208H170.07v-1.65h6.666v-3.5H165.45V39.92H177v-3.5ZM188.22,26.06v6.27l-5.28-6.27h-3.828V39.92h4.554V33.65l5.28,6.27h3.828V26.06ZM109.944,58.73c4.488,0,7.788-3.036,7.788-7.26s-3.3-7.26-7.788-7.26-7.788,3.036-7.788,7.26S105.39,58.73,109.944,58.73Zm0-3.762a3.149,3.149,0,0,1-3.1-3.432c0-2.178,1.386-3.5,3.1-3.5s3.1,1.32,3.1,3.5A3.149,3.149,0,0,1,109.944,54.968ZM128.886,44.54v6.27l-5.28-6.27h-3.828V58.4h4.554V52.13l5.28,6.27h3.828V44.54h-4.554ZM145.254,58.4h4.686V48.17h4.026V44.54h-12.8v3.63h4.026V58.4Zm20.064-13.86-3.366,8.118-3.3-8.118h-5.016L159.51,58.4h4.62L170,44.54h-4.686Z" transform="translate(-37.014 -11.25)" fill="#fff"/>
          <rect id="Rectangle_291" data-name="Rectangle 291" width="50.16" height="49.5" transform="translate(0 0.157)" fill="none"/>
          <path id="Path_189" d="M34.069,20.023a1.39,1.39,0,0,1-.858-.33L19.417,5.833a1.213,1.213,0,0,1,1.716-1.716h0l12.936,13,13-12.936A1.213,1.213,0,0,1,48.787,5.9h0L34.927,19.693a1.254,1.254,0,0,1-.858.33" transform="translate(-9.121 -3.762)" fill="#fff"/>
          <path id="Path_190" d="M39.378,58.23H15.222A4.422,4.422,0,0,1,10.8,53.808V35.922A4.422,4.422,0,0,1,15.222,31.5H39.378A4.422,4.422,0,0,1,43.8,35.922V53.874a4.409,4.409,0,0,1-4.422,4.356M15.222,33.876a1.986,1.986,0,0,0-1.98,1.98V53.808a1.986,1.986,0,0,0,1.98,1.98H39.378a1.986,1.986,0,0,0,1.98-1.98V35.922a1.986,1.986,0,0,0-1.98-1.98H15.222Z" transform="translate(-6.312 -13.193)" fill="#ba041f"/>
          <path id="Path_191" d="M67.068,40.136a3.168,3.168,0,1,1,3.168-3.168h0a3.212,3.212,0,0,1-3.168,3.168m0-3.96a.792.792,0,1,0,.792.792.792.792,0,0,0-.792-.792" transform="translate(-24.366 -13.975)" fill="#fff"/>
          <rect id="Rectangle_292" data-name="Rectangle 292" width="29.04" height="29.04" transform="translate(34.98 34.477)" fill="none"/>
          <g id="Group_66" data-name="Group 66" transform="translate(0.066 13.819)">
            <path id="Path_294" data-name="Path 294" d="M39.476,59.35a6.039,6.039,0,0,1,.066-1.056H8.522a1.986,1.986,0,0,1-1.98-1.98V29.122a1.986,1.986,0,0,1,1.98-1.98H49.508a1.986,1.986,0,0,1,1.98,1.98V45.358a11.437,11.437,0,0,1,2.112-.2h.264V29.122A4.422,4.422,0,0,0,49.442,24.7H8.522A4.422,4.422,0,0,0,4.1,29.122V56.248A4.422,4.422,0,0,0,8.522,60.67H39.608a8.125,8.125,0,0,1-.132-1.32Z" transform="translate(-4.1 -24.7)" fill="#fff"/>
            <path id="Path_295" data-name="Path 295" d="M70.624,46.888A1.183,1.183,0,0,0,69.436,45.7H64.288a1.188,1.188,0,0,0,0,2.376h5.148A1.227,1.227,0,0,0,70.624,46.888Z" transform="translate(-24.16 -31.84)" fill="#fff"/>
            <path id="Path_296" data-name="Path 296" d="M64.188,54.076h5.148a1.188,1.188,0,1,0,0-2.376H64.188a1.188,1.188,0,0,0,0,2.376Z" transform="translate(-24.126 -33.88)" fill="#fff"/>
            <path id="Path_297" data-name="Path 297" d="M64.188,60.076h0a13.612,13.612,0,0,1,3.7-2.376h-3.7a1.188,1.188,0,0,0,0,2.376Z" transform="translate(-24.126 -35.92)" fill="#fff"/>
          </g>
          <path id="Path_176" d="M84.38,71.29A10.89,10.89,0,1,1,73.49,60.4,10.89,10.89,0,0,1,84.38,71.29h0" transform="translate(-23.924 -23.019)" fill="#00a80c"/>
          <path id="Path_177" d="M74.208,80.33l8.052-8.052a.717.717,0,0,0,0-.99h0l-.99-.99a.717.717,0,0,0-.99,0l-6.6,6.6-3.1-3.1a.717.717,0,0,0-.99,0h0l-.99.99a.717.717,0,0,0,0,.99l4.554,4.554a.8.8,0,0,0,1.056,0h0" transform="translate(-25.896 -26.317)" fill="#fff"/>
        </g>
      </g>
    </g>
  </g>
</svg>
