<svg xmlns="http://www.w3.org/2000/svg" xmlns:xlink="http://www.w3.org/1999/xlink" width="170.88" height="64" viewBox="0 0 170.88 64">
  <defs>
    <clipPath id="clip-path">
      <rect id="Прямоугольник_1541" data-name="Прямоугольник 1541" width="170.88" height="64"/>
    </clipPath>
  </defs>
  <g id="icon-en-cillicence" transform="translate(85.44 32)">
    <g id="icon-en-cillicence-2" data-name="icon-en-cillicence" transform="translate(-85.44 -32)" clip-path="url(#clip-path)">
      <g id="CIL_logo" data-name="CIL logo" transform="translate(3.839 3.2)">
        <path id="Path_49" data-name="Path 49" d="M268.279,852.334l-.555-.128a5.217,5.217,0,0,1-3.949-4.48,5.785,5.785,0,0,1-.045-.669q0-3.964,0-7.929v-.27q27.9-.077,55.763.039a1.573,1.573,0,0,1,.019.173c0,2.76.017,5.518-.008,8.276a4.864,4.864,0,0,1-1.208,3.136,5.146,5.146,0,0,1-3.215,1.813.474.474,0,0,0-.1.04Zm28.48-4.112c-.287-.274-.426-.278-.823-.03l-.047-.154h-.38a10.13,10.13,0,0,0,.024,1.768h.433c0-.07.011-.124.011-.178,0-.308,0-.62,0-.925,0-.17.079-.285.178-.289s.163.094.167.283c0,.208,0,.416,0,.624v.493h.472c.006-.084.013-.159.013-.234v-.81a.66.66,0,0,1,.008-.161c.024-.092.064-.189.172-.192s.141.1.163.192a.671.671,0,0,1,.006.161v.812c0,.073.006.148.011.234h.452a.522.522,0,0,0,.019-.1c0-.369.006-.739,0-1.11a1.011,1.011,0,0,0-.064-.315.4.4,0,0,0-.412-.276.562.562,0,0,0-.406.207Zm12.608-6.65.028-.008.58,1.468h.442v-2.456h-.388v1.583l-.626-1.58h-.429a20.759,20.759,0,0,0,.022,2.458h.371Zm-1.856-.21a1.313,1.313,0,0,0-.362-.111.489.489,0,0,0-.456.3,1.333,1.333,0,0,0-.035,1.142.475.475,0,0,0,.722.238.375.375,0,0,1,.07-.015.467.467,0,0,1-.118.413c-.172.167-.375.041-.576.017l-.068.339a1.012,1.012,0,0,0,.844.022.552.552,0,0,0,.362-.42,2.542,2.542,0,0,0,.049-.459c.006-.516,0-1.033,0-1.549-.316-.063-.376-.05-.438.079ZM287.664,847.4a.983.983,0,0,0-1.329.566,1.907,1.907,0,0,0-.043,1.206.836.836,0,0,0,.486.585,1.232,1.232,0,0,0,.913-.006v-1.309h-.623v.358l.176.045v.576c-.227.013-.32-.035-.407-.235a1.46,1.46,0,0,1-.019-1.084.487.487,0,0,1,.536-.347c.075,0,.148.017.232.028Zm13.164-.971h.467l.118-.529h.431l.118.523h.463l-.478-2.464h-.585Zm-33.469.853v2.536c.353.017.353.017.439-.159a.392.392,0,0,0,.448.167.488.488,0,0,0,.324-.28,1.5,1.5,0,0,0,.026-1.256.418.418,0,0,0-.634-.2,1.394,1.394,0,0,1-.139.058v-.863Zm44.224-6.71.553,2.467h.551l.559-2.465h-.534l-.272,1.736-.035-.006-.283-1.732Zm-38,9.238a.379.379,0,0,0,.021-.075c0-.356.008-.712,0-1.065a1.313,1.313,0,0,0-.077-.384.408.408,0,0,0-.566-.235c-.068.03-.128.073-.227.128v-.911H272.5c-.069,0-.15.009-.221.013a24.073,24.073,0,0,0,.013,2.529h.433c.006-.064.015-.12.015-.173,0-.291,0-.585,0-.879a.675.675,0,0,1,.064-.262.179.179,0,0,1,.148-.079.2.2,0,0,1,.124.116.533.533,0,0,1,.024.2v.9a1.063,1.063,0,0,0,.022.17Zm24.73-5.76a1.055,1.055,0,0,0-1,.545,1.708,1.708,0,0,0-.1,1.466.646.646,0,0,0,1.1.167,1.028,1.028,0,0,0,.077-1.088.486.486,0,0,0-.677-.182.7.7,0,0,1-.116.056.737.737,0,0,1,.718-.6Zm5.12.307c-.03.084-.047.141-.07.2-.212.489-.424.975-.64,1.464a.524.524,0,0,0-.047.412h1.293v-.39h-.72c.026-.078.036-.128.058-.176.205-.482.407-.964.621-1.445a.768.768,0,0,0,.038-.456h-1.208v.394Zm-31.99-3.085c0,.413,0,.8,0,1.185a1.337,1.337,0,0,0,.073.337.384.384,0,0,0,.364.275.487.487,0,0,0,.384-.135.254.254,0,0,1,.064-.03l.054.141h.377v-1.768h-.484v1.08a.476.476,0,0,1-.036.2.2.2,0,0,1-.133.109c-.043,0-.107-.06-.128-.108a.612.612,0,0,1-.038-.225v-.881a1.3,1.3,0,0,0-.019-.18Zm28.646,8.544V848.77a.548.548,0,0,1,.051-.243.214.214,0,0,1,.159-.1c.047.006.1.081.128.14a.531.531,0,0,1,.024.2v.879a1.235,1.235,0,0,0,.021.165h.454v-1.288a.73.73,0,0,0-.038-.18.461.461,0,0,0-.673-.266c-.058.034-.111.077-.18.124l-.056-.161c-.064,0-.124-.009-.184-.009s-.133.011-.192.015a11.194,11.194,0,0,0,.024,1.77Zm-5.824,0v-1a.966.966,0,0,1,.034-.248.179.179,0,0,1,.18-.152c.1,0,.128.1.143.182a1.049,1.049,0,0,1,.006.163c0,.293,0,.585,0,.879a1.437,1.437,0,0,0,.021.172h.478c-.013-.448.028-.885-.024-1.322a.665.665,0,0,0-.019-.113.463.463,0,0,0-.69-.3,1.732,1.732,0,0,0-.172.116c-.075-.192-.088-.192-.433-.141v1.761Zm-11.008-6.77v-.735a3.982,3.982,0,0,0-.017-.555c-.079-.525-.42-.658-.855-.347l-.024.006c-.084-.18-.137-.192-.454-.122,0,.58,0,1.163,0,1.748h.482V842.2a2.309,2.309,0,0,1,.006-.3c.017-.152.128-.276.221-.251.132.035.137.152.137.262,0,.308,0,.617,0,.925,0,.064.011.133.015.21Zm-4.027,4.976v1.787h.472v-.99a.963.963,0,0,1,.035-.248.179.179,0,0,1,.18-.152c.1,0,.128.1.143.182a1.022,1.022,0,0,1,.006.163c0,.293,0,.585,0,.879a1.433,1.433,0,0,0,.019.172h.465a1.212,1.212,0,0,0,.013-.143c0-.332,0-.664,0-1a1.381,1.381,0,0,0-.041-.3.462.462,0,0,0-.69-.3,2.084,2.084,0,0,0-.173.116c-.06-.282-.272-.124-.433-.177Zm22.349-4.978c0-.086.011-.161.011-.236v-.763a.951.951,0,0,1,.021-.206c.022-.1.081-.2.2-.189s.141.128.143.229c0,.27,0,.54,0,.81v.351h.48a.516.516,0,0,0,.017-.1c0-.353,0-.709,0-1.065a1.309,1.309,0,0,0-.04-.272.462.462,0,0,0-.673-.3,2.013,2.013,0,0,0-.189.124c-.075-.192-.1-.2-.431-.137v1.757Zm-16.1,3.382c0-.09.011-.165.011-.243v-.763a1.012,1.012,0,0,1,.015-.182c.03-.135.124-.232.208-.213.124.028.14.133.141.236,0,.27,0,.54,0,.81v.349h.493v-1.26a.762.762,0,0,0-.035-.182.464.464,0,0,0-.677-.3,2.191,2.191,0,0,0-.186.12c-.073-.189-.111-.2-.429-.135v1.761Zm20.272-3.392h.5v-1.219a.852.852,0,0,0-.036-.2.463.463,0,0,0-.686-.308,1.6,1.6,0,0,0-.172.114c-.081-.184-.152-.2-.454-.124v.879c0,.289-.006.576.006.868h.48V842.8c0-.27-.008-.54,0-.81a.547.547,0,0,1,.088-.276.132.132,0,0,1,.246.045.738.738,0,0,1,.026.23c0,.347,0,.689,0,1.051ZM290.078,845l.281.03-.043.384-.287.022v.259l.234.032-.06.688h.266l.094-.7.24.015-.073.693H291l.1-.693.294-.03v-.256l-.266-.024.06-.384.275-.028v-.248l-.225-.038c-.034-.234.1-.448.022-.679l-.23.015-.1.681-.242-.013.073-.667H290.5l-.1.671-.3.021Zm18.671,3.032V849.1a.557.557,0,0,1-.043.223.133.133,0,0,1-.261,0,.72.72,0,0,1-.043-.246c0-.286,0-.572,0-.857a1.682,1.682,0,0,0-.019-.178h-.448v1.309a.577.577,0,0,0,.041.178.422.422,0,0,0,.591.27,2.187,2.187,0,0,0,.229-.128c.073.173.141.192.442.116,0-.58.006-1.163-.006-1.753Zm-39.663,2.583a.778.778,0,0,0,.458-.351,3.984,3.984,0,0,0,.3-.673c.141-.456.256-.922.373-1.382a1.172,1.172,0,0,0,.024-.167h-.448l-.175,1.059h-.041l-.205-1.063h-.508c.017.064.028.128.045.184.128.448.256.9.4,1.35a.429.429,0,0,1-.148.491,2.027,2.027,0,0,1-.214.156Zm24.448-6.564h-.988a9.929,9.929,0,0,0-.1,1.166c.529.043.692.176.652.512-.036.283-.229.356-.726.27-.013.06-.024.12-.035.18s-.017.118-.03.2a2.714,2.714,0,0,0,.351.073.806.806,0,0,0,.93-.728.7.7,0,0,0-.534-.821,1.864,1.864,0,0,1-.192-.051l.056-.409h.62Zm.36,2.333a3.34,3.34,0,0,0,.42.064.819.819,0,0,0,.855-1.02.634.634,0,0,0-.493-.525c-.064-.017-.128-.032-.21-.051l.038-.413h.62v-.392h-.97c-.054.392-.109.776-.128,1.162.557.07.724.206.669.525-.049.289-.266.371-.724.256ZM315.8,848.01a.624.624,0,0,0-.593.405,1.291,1.291,0,0,0-.013,1.014.624.624,0,0,0,.746.4.665.665,0,0,0,.512-.538,1.432,1.432,0,0,0,0-.731.651.651,0,0,0-.652-.549Zm-27.83.984a3.011,3.011,0,0,0,.081.4.649.649,0,0,0,1.211.058,1.266,1.266,0,0,0-.024-1.095.621.621,0,0,0-1.057-.11,1.152,1.152,0,0,0-.213.746Zm-9.32-6.756a2.6,2.6,0,0,0,.1.431.588.588,0,0,0,.566.4.6.6,0,0,0,.613-.371,1.256,1.256,0,0,0-.021-1.136.627.627,0,0,0-1.035-.1,1.16,1.16,0,0,0-.224.778Zm24.393,6.778a2.417,2.417,0,0,0,.088.394.645.645,0,0,0,1.2.049,1.256,1.256,0,0,0-.026-1.117.624.624,0,0,0-1.046-.1,1.16,1.16,0,0,0-.215.773Zm8.913.8c0-.384,0-.737,0-1.093a1.3,1.3,0,0,0-.045-.32.474.474,0,0,0-.337-.354,1.159,1.159,0,0,0-.785.086c.008.071.011.124.022.176a1.251,1.251,0,0,0,.054.133,1.375,1.375,0,0,1,.3-.077.4.4,0,0,1,.234.064c.043.03.049.111.075.178a2.072,2.072,0,0,0-.278.064,1.3,1.3,0,0,0-.31.145.621.621,0,0,0-.118.832c.165.232.431.246.712.045.008-.006.028,0,.043,0l.06.118Zm-33.62-6.756v-1.088a1.455,1.455,0,0,0-.043-.32.461.461,0,0,0-.281-.347,1.075,1.075,0,0,0-.857.075l.079.3c.48-.128.564-.1.591.172-.095.021-.192.04-.287.064a.625.625,0,0,0-.5.682.472.472,0,0,0,.785.36c.019-.013.038-.022.064-.038.084.239.273.113.449.143Zm10.342-.013v-1.112a1.246,1.246,0,0,0-.045-.3.485.485,0,0,0-.377-.371,1.2,1.2,0,0,0-.758.107l.086.3c.463-.135.576-.1.576.173-.094.022-.192.038-.287.064a.625.625,0,0,0-.493.666.5.5,0,0,0,.3.459.442.442,0,0,0,.495-.092.169.169,0,0,1,.064-.028l.064.128Zm7.1,2.284c.075.011.128.015.182.028a.358.358,0,1,1-.163.693c-.073-.015-.146-.036-.229-.056-.015.064-.028.128-.038.186s-.015.116-.024.17a1.068,1.068,0,0,0,.671.092.708.708,0,0,0,.452-1.11,1.782,1.782,0,0,0-.227-.208.812.812,0,0,0,.1-.084.576.576,0,0,0,.172-.566.521.521,0,0,0-.433-.426.856.856,0,0,0-.675.109l.068.335c.084-.024.141-.043.2-.058a.273.273,0,0,1,.353.17.29.29,0,0,1-.2.362c-.071.024-.143.041-.212.06Zm18.53,3.285c-.1.021-.192.038-.289.064a.648.648,0,0,0-.512.538.576.576,0,0,0,.244.561.448.448,0,0,0,.553-.064.289.289,0,0,1,.054-.024c.113.235.3.116.448.122v-1.03a1.562,1.562,0,0,0-.019-.3.5.5,0,0,0-.324-.418,1.116,1.116,0,0,0-.838.086l.084.294c.478-.125.551-.1.6.171Zm-39.321-6.772c-.094.021-.192.04-.287.064a.64.64,0,0,0-.512.531.576.576,0,0,0,.238.566.448.448,0,0,0,.553-.064c.017-.013.038-.019.056-.03l.079.128h.369v-.982a1.883,1.883,0,0,0-.019-.347.5.5,0,0,0-.341-.429,1.13,1.13,0,0,0-.812.086c.017.077.028.135.043.192.011.034.028.064.041.1.483-.1.532-.088.592.186Zm8.956,6.769c-.1.024-.182.035-.262.06a1.285,1.285,0,0,0-.294.128.606.606,0,0,0-.154.84c.172.249.435.264.748.041l.075.122h.373v-.9a2.97,2.97,0,0,0-.019-.416.512.512,0,0,0-.248-.4.93.93,0,0,0-.906.086l.084.264c.454-.13.525-.111.6.17Zm-12.726-7.983a.872.872,0,0,0-1.052.27,1.81,1.81,0,0,0-.086,1.761.859.859,0,0,0,1.119.32l-.028-.173-.03-.169a.7.7,0,0,0-.088,0,.487.487,0,0,1-.609-.448,1.612,1.612,0,0,1,0-.756.5.5,0,0,1,.65-.443.2.2,0,0,0,.054-.021Zm6.2,6.755a1.312,1.312,0,0,0-.246-.064.872.872,0,0,0-.9.482,1.732,1.732,0,0,0-.011,1.6.839.839,0,0,0,1.127.347l-.054-.349c-.073.006-.118.011-.163.013a.459.459,0,0,1-.5-.328,1.484,1.484,0,0,1,.006-1.018.457.457,0,0,1,.545-.32.6.6,0,0,1,.107.024Zm30.282,0a1.281,1.281,0,0,0-.244-.064.877.877,0,0,0-.913.5,1.752,1.752,0,0,0-.013,1.56.841.841,0,0,0,1.14.369l-.051-.349c-.073,0-.118.011-.163.013a.461.461,0,0,1-.508-.348,1.49,1.49,0,0,1,.006-.975.458.458,0,0,1,.527-.348,1.108,1.108,0,0,1,.128.022Zm-18.5-1.664a1.251,1.251,0,0,0-.071-.758.566.566,0,0,0-.712-.308.629.629,0,0,0-.377.323,1.255,1.255,0,0,0-.041,1.093.612.612,0,0,0,.516.38,1.216,1.216,0,0,0,.628-.081l-.064-.309c-.583.038-.671,0-.694-.339Zm10.078,3.382a1.381,1.381,0,0,0-.083-.75.563.563,0,0,0-.731-.307.627.627,0,0,0-.358.31,1.267,1.267,0,0,0-.045,1.095.589.589,0,0,0,.422.364,1.1,1.1,0,0,0,.728-.068l-.073-.315c-.521.077-.652.019-.692-.33Zm1.5-6.772a1.391,1.391,0,0,0-.086-.768.563.563,0,0,0-.675-.307.669.669,0,0,0-.448.405,1.318,1.318,0,0,0-.051.883.644.644,0,0,0,.694.52,4.584,4.584,0,0,0,.5-.056l-.073-.349c-.529.075-.675.006-.682-.332Zm-16.111,3.386a1.184,1.184,0,0,0-.06-.75.563.563,0,0,0-.731-.3.623.623,0,0,0-.358.313,1.269,1.269,0,0,0-.032,1.116.582.582,0,0,0,.461.349,1.158,1.158,0,0,0,.671-.073l-.064-.311c-.559.051-.692-.015-.682-.34Zm1.365-3.388a1.438,1.438,0,0,0-.079-.744.562.562,0,0,0-.728-.308.615.615,0,0,0-.371.33,1.273,1.273,0,0,0-.024,1.1.6.6,0,0,0,.48.358,1.224,1.224,0,0,0,.653-.075l-.07-.323c-.525.079-.677.006-.677-.332Zm9.035,0a1.307,1.307,0,0,0-.068-.742.564.564,0,0,0-.7-.323.66.66,0,0,0-.424.4,1.309,1.309,0,0,0-.064.838.662.662,0,0,0,.731.568c.15,0,.3-.036.478-.058l-.073-.349c-.529.075-.673.006-.682-.332ZM278.89,849.1a1.364,1.364,0,0,0-.084-.763.565.565,0,0,0-.694-.3.633.633,0,0,0-.405.356,1.291,1.291,0,0,0-.028,1.054.582.582,0,0,0,.418.369,1.074,1.074,0,0,0,.731-.068l-.075-.308c-.527.068-.664,0-.679-.334Zm-3.665,0a1.379,1.379,0,0,0-.077-.752.562.562,0,0,0-.709-.311.63.63,0,0,0-.39.34,1.284,1.284,0,0,0-.03,1.076.6.6,0,0,0,.469.371,1.169,1.169,0,0,0,.677-.075l-.079-.32c-.516.086-.682,0-.671-.328Zm29.6.7h.506v-1.408l.266-.03v-.328l-.3-.038c.032-.109.032-.229.092-.287a.885.885,0,0,1,.294-.1l.045-.3c-.523-.2-.827.03-.93.7l-.192.03v.32l.219.047Zm-12.5-.709a1.232,1.232,0,0,0-.068-.755.56.56,0,0,0-.712-.3.622.622,0,0,0-.388.345,1.292,1.292,0,0,0-.026,1.076.576.576,0,0,0,.3.307,1.159,1.159,0,0,0,.844-.006l-.07-.324c-.545.064-.7-.017-.671-.339Zm3.729-8.527v2.467h1.088v-.4h-.626v-2.063Zm-15.624,5.454v-2.058h-.465v2.458h1.088v-.394Zm32.333,3.8-.1.281a.5.5,0,0,1,.1.047c.045.036.116.083.111.12-.008.092-.1.075-.165.068a1.115,1.115,0,0,1-.137-.017l-.045.182a.531.531,0,0,0,.5.028.279.279,0,0,0,.075-.476.967.967,0,0,0-.118-.094c.038-.192.244-.081.328-.221l-.045-.308c-.272.026-.362,0-.444-.15a.741.741,0,0,1-.011-.69.324.324,0,0,1,.32-.189c.043,0,.088.006.148.011l.051-.337a.73.73,0,0,0-.879.221,1.03,1.03,0,0,0,.312,1.53Zm-22.327-.009c.165-.6.33-1.179.474-1.772h-.469l-.2,1.117h-.03l-.2-1.123h-.51l.486,1.777Zm2.314-8.548h-.512l.484,1.772h.454l.474-1.768h-.476l-.192,1.119h-.032Zm-15.954,1.4c-.367.028-.516-.1-.534-.448a.646.646,0,0,1,.137-.475.406.406,0,0,1,.407-.092l.058-.367a.794.794,0,0,0-.8.161,1.03,1.03,0,0,0,.223,1.616l-.1.27a.364.364,0,0,0,.073.043c.07.026.172.04.139.141s-.128.06-.2.051l-.1-.015-.041.2a.594.594,0,0,0,.424.043.3.3,0,0,0,.234-.231.275.275,0,0,0-.12-.3.889.889,0,0,1-.086-.064c.035-.2.266-.073.326-.216Zm-4.856,6.8c-.118-.032-.272-.03-.276-.192-.011-.289,0-.58,0-.874l.32-.028v-.334l-.328-.024v-.469l-.486.116-.017.342-.182.049v.31l.192.047v.4a5.594,5.594,0,0,0,.028.6.439.439,0,0,0,.523.424,1.919,1.919,0,0,0,.234-.03Zm29.948-1.92-.484.116-.021.345-.182.043v.311l.192.06c0,.173,0,.337,0,.5a4.757,4.757,0,0,0,.032.553.384.384,0,0,0,.366.355,2.536,2.536,0,0,0,.384-.006c0-.086.011-.14.008-.192s-.006-.107-.011-.156c-.27-.071-.281-.082-.283-.343v-.371c0-.12,0-.24.006-.356l.315-.028v-.332l-.324-.032Zm-20.041.493-.334-.024-.022-.465-.463.107-.024.349-.186.045v.32l.2.043v.27c0,.229-.008.463.008.692a.453.453,0,0,0,.512.467,2.22,2.22,0,0,0,.256-.03v-.358c-.143,0-.281-.033-.289-.2-.013-.283,0-.566,0-.851l.34-.032Zm1.656-6.761v.32l.2.043v.3c0,.229,0,.463.015.692a.435.435,0,0,0,.467.438,2.978,2.978,0,0,0,.3-.026v-.358c-.139-.009-.276-.028-.287-.184a8.456,8.456,0,0,1,0-.87l.337-.032v-.326l-.345-.035v-.463l-.472.111-.021.347Zm6.72.32.205.047v.38c0,.216,0,.433.019.647a.4.4,0,0,0,.407.392,2.218,2.218,0,0,0,.358-.017v-.358c-.143,0-.285-.033-.294-.2-.013-.281,0-.566,0-.853l.332-.035v-.33l-.324-.026-.03-.467-.458.118-.019.343-.192.043Zm-4.946,8.219v-2.527h-.461a21.716,21.716,0,0,0,.017,2.527Zm14.39-3.761-.038.362c.593.128.9-.09.934-.658v-1.622a1.5,1.5,0,0,0-.021-.172h-.463v1.706c0,.283-.073.353-.349.364a.536.536,0,0,0-.064.02Zm-18.191-3.008v-2.469c-.086,0-.161-.011-.236-.011s-.15.009-.236.013v2.467Zm21.312-.394-.07.336a.917.917,0,0,0,.692.041.5.5,0,0,0,.349-.443.576.576,0,0,0-.285-.566,1.953,1.953,0,0,1-.227-.159.163.163,0,0,1-.038-.141.161.161,0,0,1,.113-.09,2.023,2.023,0,0,1,.311.019l.064-.309a.617.617,0,0,0-.474-.086.539.539,0,0,0-.454.377.469.469,0,0,0,.146.542c.064.056.133.1.2.155a.579.579,0,0,1,.146.111.208.208,0,0,1,.036.162.177.177,0,0,1-.137.09,2.755,2.755,0,0,1-.374-.043ZM286.7,846.037l-.075.332a.9.9,0,0,0,.7.038.492.492,0,0,0,.334-.407.572.572,0,0,0-.294-.6,1.784,1.784,0,0,1-.208-.146.161.161,0,0,1-.047-.137.2.2,0,0,1,.128-.1,1.7,1.7,0,0,1,.3.024l.071-.316a.678.678,0,0,0-.512-.077.543.543,0,0,0-.422.384.461.461,0,0,0,.143.523,2.214,2.214,0,0,0,.219.17.9.9,0,0,1,.143.111c.094.111.045.242-.1.246a2.565,2.565,0,0,1-.38-.042Zm3.364-4.74a.762.762,0,0,0-.986.4,1.164,1.164,0,0,0-.037.9.714.714,0,0,0,.995.41l-.045-.351a.379.379,0,0,1-.4-.064.772.772,0,0,1-.077-.724c.084-.186.192-.238.491-.216Zm9.256-.015a.8.8,0,0,0-.853.213,1.131,1.131,0,0,0-.036,1.352.715.715,0,0,0,.859.143l-.045-.313c-.392.008-.54-.138-.534-.521s.167-.536.544-.512Zm-16.1,3.392a.789.789,0,0,0-1.035.527,1.219,1.219,0,0,0,.043.857.714.714,0,0,0,.964.324c-.013-.092-.024-.192-.036-.287a.112.112,0,0,0-.024-.04c-.356.024-.508-.116-.516-.476a.624.624,0,0,1,.135-.452.4.4,0,0,1,.407-.088Zm26.88,5.139v-.859c0-.334.064-.416.4-.48V848a1.159,1.159,0,0,0-.256.06,1.084,1.084,0,0,0-.2.172l-.047-.192c-.068,0-.128-.009-.192-.009s-.128.011-.192.015a10.817,10.817,0,0,0,.026,1.77Zm-27.511,0c0-.086.011-.148.011-.208,0-.246,0-.493,0-.739a.335.335,0,0,1,.326-.373.661.661,0,0,0,.077-.024v-.442c-.212-.017-.212-.017-.461.189l-.041-.173h-.384v1.77Zm-9.437-8.55a10.073,10.073,0,0,0,.024,1.773h.444v-.851c0-.32.081-.418.4-.484v-.448a.345.345,0,0,0-.39.161c-.008.015-.034.017-.054.026l-.054-.178Zm13.67,1.777c0-.077.013-.143.013-.212V842.2c0-.34.071-.431.4-.505v-.442c-.208-.056-.32.064-.429.2l-.068-.189h-.374v1.77Zm6.729,4.992c-.218-.068-.328.073-.448.192-.056-.225-.077-.232-.429-.172V849.8h.472v-.827c0-.343.073-.437.407-.512Zm-2.019-6.767v1.77H292v-1.77Zm12.992,1.775v-1.77h-.474v1.77Zm-7.061-1.775a10.474,10.474,0,0,0,.013,1.77h.429v-1.77Zm-16.093,3.388a10.253,10.253,0,0,0,.013,1.77h.428v-1.77Zm17.984-.712-.851,2.624h.32l.853-2.624c-.081,0-.128-.011-.172-.011s-.091.007-.151.012Zm11.788-.872a.29.29,0,0,0,.27-.337.284.284,0,0,0-.28-.3.328.328,0,0,0-.278.343.291.291,0,0,0,.289.3Zm2.711-.328a.3.3,0,0,0-.278-.31.313.313,0,0,0-.281.334.283.283,0,0,0,.276.3.3.3,0,0,0,.283-.328Zm-9.577-1.712a.256.256,0,0,0,.256-.248.271.271,0,0,0-.268-.264.239.239,0,0,0-.229.264.228.228,0,0,0,.241.249Zm-22.452,3.136a.256.256,0,0,0-.24-.256.232.232,0,0,0-.244.244c0,.172.084.27.24.268a.241.241,0,0,0,.245-.259Z" transform="translate(-260.949 -796.441)" fill="#fff"/>
        <path id="Path_50" data-name="Path 50" d="M262.431,852.853a.724.724,0,0,0,.1-.17q.44-1.691.872-3.384.9-3.465,1.792-6.926.537-2.083,1.071-4.168.813-3.15,1.629-6.3.887-3.449,1.777-6.9c.011-.045.028-.086.045-.137h25.82l-2.769,10.822h-5.081c-.084-.373-.143-.737-.251-1.088a6.093,6.093,0,0,0-4.032-4.2,7.945,7.945,0,0,0-3.008-.405,11.362,11.362,0,0,0-5.546,1.813,12.835,12.835,0,0,0-2.479,2.006,11.764,11.764,0,0,0-3.092,5.475,8.448,8.448,0,0,0-.2,2.713,6.351,6.351,0,0,0,1.642,3.823,6.158,6.158,0,0,0,2.426,1.616,7.785,7.785,0,0,0,2.254.467,10.414,10.414,0,0,0,4.968-.973,12.932,12.932,0,0,0,3.461-2.289,12.172,12.172,0,0,0,2.055-2.4.384.384,0,0,1,.373-.2c1.536.006,3.072,0,4.614,0h.275l-2.8,10.941H262.754c-.107,0-.214.006-.324.011Z" transform="translate(-262.43 -812.401)" fill="#fff"/>
        <path id="Path_51" data-name="Path 51" d="M319.51,848.669h-6.5l4.822-18.89H266.689l-2.912,11.328-.049-.006V824.3a5.24,5.24,0,0,1,4.779-5.248,1.678,1.678,0,0,1,.208,0q22.912,0,45.814.006a4.758,4.758,0,0,1,2.988,1.106,5.136,5.136,0,0,1,1.942,3.363,4.368,4.368,0,0,1,.049.669q0,12.08,0,24.159ZM284.7,821.7v5.852h.7c-.011-1.626.032-3.242-.038-4.86a.142.142,0,0,1,.06.064c.176.326.337.66.525.979.371.623.752,1.241,1.133,1.856s.758,1.219,1.144,1.826c.036.058.1.135.163.137.227.017.456.006.692.006V821.7h-.493c-.064,0-.133.009-.225.015.011,1.594-.038,3.176.064,4.759a.666.666,0,0,1-.118-.173c-.148-.281-.281-.568-.448-.838-.439-.726-.89-1.444-1.34-2.164-.307-.493-.62-.98-.928-1.468-.041-.064-.075-.133-.172-.128Zm21.9,5.837a7.838,7.838,0,0,0,1.478.069,3.466,3.466,0,0,0,1.243-.237,1.491,1.491,0,0,0,.979-1.414,1.421,1.421,0,0,0-.872-1.408c-.088-.043-.182-.081-.3-.133l.256-.141a1.324,1.324,0,0,0,.433-2,1.688,1.688,0,0,0-1.084-.566,6.262,6.262,0,0,0-1.432-.032c-.234.013-.467.064-.7.094Zm-7.616-5.771v5.768c.094.011.176.021.259.028.214.015.429.035.645.04a6.365,6.365,0,0,0,1.768-.143,2.552,2.552,0,0,0,1.926-1.695,3.592,3.592,0,0,0,.041-2.36,2.34,2.34,0,0,0-1.307-1.45,3.268,3.268,0,0,0-1.208-.281c-.416-.019-.832-.017-1.249,0-.292.012-.581.061-.877.093Zm-15.4.561v-.607c-.362-.049-2.994-.032-3.144.017v5.805c.394.049,3.107.03,3.264-.02v-.585h-1.686c-.277,0-.548.009-.819-.006a14.564,14.564,0,0,1,.03-2.13h2.207v-.634h-2.24v-1.841Zm11.136-.617v5.831c.33.045,3.1.03,3.264-.015v-.583c-.844-.011-1.674.006-2.518-.011V824.8h2.252v-.634h-2.225a10.04,10.04,0,0,1,.019-1.856h2.362v-.6Zm-4.59,5.568a.984.984,0,0,0,.137.09,3.151,3.151,0,0,0,2.344.128,1.549,1.549,0,0,0,.715-.493,1.6,1.6,0,0,0-.347-2.355c-.281-.173-.594-.294-.887-.444a7.381,7.381,0,0,1-.728-.4.768.768,0,0,1-.34-.787.825.825,0,0,1,.576-.694,1.354,1.354,0,0,1,.771-.073c.291.064.576.139.9.214l.186-.564a2.771,2.771,0,0,0-2.392-.045,1.49,1.49,0,0,0-.161,2.554,3.977,3.977,0,0,0,.906.454,2.631,2.631,0,0,1,.771.414.882.882,0,0,1,.334.636.975.975,0,0,1-.881,1.084,2.192,2.192,0,0,1-1.007-.064c-.234-.068-.459-.167-.7-.261Zm-10.65-5.413c-.118-.043-.21-.084-.3-.111a3.781,3.781,0,0,0-1.967-.034,2.688,2.688,0,0,0-1.856,1.472,3.46,3.46,0,0,0-.161,2.612A2.5,2.5,0,0,0,277,827.529a3.946,3.946,0,0,0,1.811.043,1.7,1.7,0,0,0,.66-.212l-.152-.559a.432.432,0,0,0-.088.015A3.168,3.168,0,0,1,277.7,827a1.959,1.959,0,0,1-1.7-1.309,3.052,3.052,0,0,1-.086-1.8,2.118,2.118,0,0,1,2.443-1.633c.313.03.617.111.949.173Zm33.455,2.624-1.4-2.784c-.287-.006-.559-.008-.86,0,.054.109.088.186.128.259q.807,1.472,1.618,2.938a.782.782,0,0,1,.094.4c0,.664,0,1.329,0,1.993v.256a5.7,5.7,0,0,0,.768,0v-.283c0-.656,0-1.313,0-1.969a.812.812,0,0,1,.12-.435q.881-1.5,1.753-3c.026-.043.043-.09.075-.157h-.857Zm-43,2.454V821.7a4.89,4.89,0,0,0-.755.015v5.829h3.253v-.607Zm4.091.611v-5.844a6.38,6.38,0,0,0-.733,0v5.844Z" transform="translate(-260.95 -819.05)" fill="#fff"/>
        <path id="Path_52" data-name="Path 52" d="M300.842,852.974H280.368l7.247-28.109h8.818l-4.973,19.3,11.694-.04c-.017.116-.024.2-.045.289q-.726,2.764-1.457,5.526-.37,1.4-.737,2.8C300.893,852.811,300.868,852.884,300.842,852.974Z" transform="translate(-241.93 -812.405)" fill="#fff"/>
        <path id="Path_53" data-name="Path 53" d="M274.417,828.811a4.484,4.484,0,0,1,2.627.729,3.818,3.818,0,0,1,1.674,2.713,5.9,5.9,0,0,1-.756,3.718,7.517,7.517,0,0,1-1.288,1.744,7.723,7.723,0,0,1-4.11,2.265,5.046,5.046,0,0,1-2.953-.256,3.792,3.792,0,0,1-2.333-2.848,5.4,5.4,0,0,1,.343-3.172,7.644,7.644,0,0,1,1.7-2.565,8.043,8.043,0,0,1,2.833-1.88,6.092,6.092,0,0,1,2.26-.448Z" transform="translate(-257.022 -807.891)" fill="#fff"/>
        <path id="Path_54" data-name="Path 54" d="M284.27,843.825H275.4c.064-.259.122-.506.184-.748q.453-1.748.906-3.492l1.678-6.521c.049-.192.056-.2.275-.2h8.63Z" transform="translate(-247.607 -803.258)" fill="#fff"/>
        <path id="Path_55" data-name="Path 55" d="M289.085,824.867l-2.769,10.822h-8.84l2.79-10.822Z" transform="translate(-245.234 -812.402)" fill="#fff"/>
        <path id="Path_56" data-name="Path 56" d="M284.365,840.624a3.193,3.193,0,0,1-.024.349c-.015.084-.064.173-.163.159a.238.238,0,0,1-.17-.124.909.909,0,0,1,.015-.755c.024-.051.111-.113.156-.1a.232.232,0,0,1,.15.14,1.782,1.782,0,0,1,.035.334Z" transform="translate(-237.853 -794.936)" fill="#fff"/>
        <path id="Path_57" data-name="Path 57" d="M281.667,842.448h-.332l.156-.952h.032Z" transform="translate(-240.824 -793.397)" fill="#fff"/>
        <path id="Path_58" data-name="Path 58" d="M266.038,843.794c-.024.141-.036.256-.064.367-.022.088-.077.173-.17.159a.22.22,0,0,1-.152-.143,6.833,6.833,0,0,1,.013-.755.168.168,0,0,1,.122-.111.2.2,0,0,1,.154.108A2.544,2.544,0,0,1,266.038,843.794Z" transform="translate(-258.749 -791.325)" fill="#fff"/>
        <path id="Path_59" data-name="Path 59" d="M279.97,842.271a1.527,1.527,0,0,1-.077.315.15.15,0,0,1-.285.006.857.857,0,0,1-.06-.6.2.2,0,0,1,.2-.167.184.184,0,0,1,.176.157,2.329,2.329,0,0,1,.049.293Z" transform="translate(-242.896 -793.025)" fill="#fff"/>
        <path id="Path_60" data-name="Path 60" d="M276.51,842.11h-.242l.047-.384h.248Z" transform="translate(-246.616 -793.133)" fill="#fff"/>
        <path id="Path_61" data-name="Path 61" d="M288.361,843.854a3.147,3.147,0,0,1-.073.384.217.217,0,0,1-.139.124c-.086.019-.141-.054-.165-.128a1.387,1.387,0,0,1,0-.793.163.163,0,0,1,.161-.141.159.159,0,0,1,.152.148C288.325,843.578,288.339,843.715,288.361,843.854Z" transform="translate(-233.291 -791.347)" fill="#fff"/>
        <path id="Path_62" data-name="Path 62" d="M275.7,843.847c-.021.128-.036.248-.064.369-.017.078-.058.146-.152.146a.166.166,0,0,1-.163-.137,1.412,1.412,0,0,1,0-.795c.024-.075.068-.141.163-.137a.163.163,0,0,1,.15.15C275.662,843.577,275.68,843.715,275.7,843.847Z" transform="translate(-247.758 -791.345)" fill="#fff"/>
        <path id="Path_63" data-name="Path 63" d="M271.353,840.665a3.376,3.376,0,0,1-.077.41.2.2,0,0,1-.143.116.2.2,0,0,1-.148-.114,1.224,1.224,0,0,1,0-.832.208.208,0,0,1,.152-.1.168.168,0,0,1,.128.1A4.009,4.009,0,0,1,271.353,840.665Z" transform="translate(-252.732 -794.951)" fill="#fff"/>
        <path id="Path_64" data-name="Path 64" d="M282.736,843.831a2.934,2.934,0,0,1-.073.392.214.214,0,0,1-.137.128c-.084.022-.141-.047-.165-.128a1.306,1.306,0,0,1,.006-.814.213.213,0,0,1,.146-.116.2.2,0,0,1,.146.113A3.734,3.734,0,0,1,282.736,843.831Z" transform="translate(-239.722 -791.338)" fill="#fff"/>
        <path id="Path_65" data-name="Path 65" d="M286.205,843.561a2.983,2.983,0,0,1,0,.339.21.21,0,0,1-.2.189c-.092-.006-.152-.086-.159-.216C285.835,843.658,285.945,843.561,286.205,843.561Z" transform="translate(-235.672 -791.037)" fill="#fff"/>
        <path id="Path_66" data-name="Path 66" d="M270.516,840.4a3.017,3.017,0,0,1,0,.34.209.209,0,0,1-.2.186c-.094,0-.152-.083-.159-.216C270.146,840.5,270.253,840.4,270.516,840.4Z" transform="translate(-253.604 -794.648)" fill="#fff"/>
        <path id="Path_67" data-name="Path 67" d="M275.343,840.4c0,.111.009.227,0,.339a.21.21,0,0,1-.2.188c-.094,0-.154-.083-.161-.214C274.97,840.5,275.075,840.4,275.343,840.4Z" transform="translate(-248.089 -794.648)" fill="#fff"/>
        <path id="Path_68" data-name="Path 68" d="M287.538,843.553c0,.128.006.243,0,.354a.2.2,0,0,1-.192.189c-.118-.009-.148-.1-.165-.189C287.145,843.716,287.255,843.6,287.538,843.553Z" transform="translate(-234.156 -791.046)" fill="#fff"/>
        <path id="Path_69" data-name="Path 69" d="M269.186,840.4c0,.124.006.232,0,.337a.207.207,0,0,1-.18.2c-.094,0-.163-.073-.18-.2C268.8,840.541,268.912,840.429,269.186,840.4Z" transform="translate(-255.129 -794.655)" fill="#fff"/>
        <path id="Path_70" data-name="Path 70" d="M273.362,843.556c0,.124.006.232,0,.337a.208.208,0,0,1-.182.2c-.094,0-.163-.075-.178-.2C272.977,843.7,273.088,843.584,273.362,843.556Z" transform="translate(-250.356 -791.042)" fill="#fff"/>
        <path id="Path_71" data-name="Path 71" d="M275.649,842.074h-.424a1.268,1.268,0,0,1,.077-.272.233.233,0,0,1,.163-.1c.041,0,.1.064.124.109A1.386,1.386,0,0,1,275.649,842.074Z" transform="translate(-247.807 -793.161)" fill="#fff"/>
        <path id="Path_72" data-name="Path 72" d="M280.339,843.649h-.416a1.088,1.088,0,0,1,.064-.256.22.22,0,0,1,.154-.109.215.215,0,0,1,.141.113A1.026,1.026,0,0,1,280.339,843.649Z" transform="translate(-242.438 -791.354)" fill="#fff"/>
        <path id="Path_73" data-name="Path 73" d="M281.055,840.5h-.435a1.5,1.5,0,0,1,.092-.291.143.143,0,0,1,.268.013A1.767,1.767,0,0,1,281.055,840.5Z" transform="translate(-241.637 -794.972)" fill="#fff"/>
        <path id="Path_74" data-name="Path 74" d="M273.549,842.077h-.433a1.111,1.111,0,0,1,.075-.273.227.227,0,0,1,.159-.1.2.2,0,0,1,.128.1,1.605,1.605,0,0,1,.071.271Z" transform="translate(-250.218 -793.161)" fill="#fff"/>
        <path id="Path_75" data-name="Path 75" d="M274.175,840.492h-.431a1.114,1.114,0,0,1,.075-.272.223.223,0,0,1,.161-.1c.041,0,.1.06.128.107A1.415,1.415,0,0,1,274.175,840.492Z" transform="translate(-249.5 -794.965)" fill="#fff"/>
        <path id="Path_76" data-name="Path 76" d="M278.4,840.5h-.433a1.221,1.221,0,0,1,.075-.273.226.226,0,0,1,.161-.1c.041,0,.1.058.128.1A1.227,1.227,0,0,1,278.4,840.5Z" transform="translate(-244.679 -794.966)" fill="#fff"/>
        <path id="Path_77" data-name="Path 77" d="M270.409,843.649a1.15,1.15,0,0,1,.079-.268.237.237,0,0,1,.161-.1c.043,0,.1.06.128.107a1.517,1.517,0,0,1,.064.259Z" transform="translate(-253.312 -791.356)" fill="#fff"/>
        <path id="Path_78" data-name="Path 78" d="M269.134,843.66H268.7a1.4,1.4,0,0,1,.079-.289.15.15,0,0,1,.283.017A1.894,1.894,0,0,1,269.134,843.66Z" transform="translate(-255.263 -791.36)" fill="#fff"/>
        <path id="Path_79" data-name="Path 79" d="M277.12,843.655h-.433a1.216,1.216,0,0,1,.073-.272.231.231,0,0,1,.161-.1.2.2,0,0,1,.128.1,1.569,1.569,0,0,1,.071.268Z" transform="translate(-246.137 -791.356)" fill="#fff"/>
        <path id="Path_80" data-name="Path 80" d="M284.094,823.954v-2.235a3.2,3.2,0,0,1,1.519.165.989.989,0,0,1,.6.936,1,1,0,0,1-.583.971,2.019,2.019,0,0,1-.827.182C284.574,823.982,284.342,823.963,284.094,823.954Z" transform="translate(-237.671 -815.999)" fill="#fff"/>
        <path id="Path_81" data-name="Path 81" d="M284.094,822.46V820.6a2.545,2.545,0,0,1,.889-.054,2.14,2.14,0,0,1,.448.094.8.8,0,0,1,.6.688.889.889,0,0,1-.375.909,1.068,1.068,0,0,1-.555.214C284.777,822.477,284.447,822.46,284.094,822.46Z" transform="translate(-237.671 -817.359)" fill="#fff"/>
        <path id="Path_82" data-name="Path 82" d="M280.533,825.224v-4.608c.159-.021.308-.051.459-.059a3.86,3.86,0,0,1,1.4.128,1.856,1.856,0,0,1,1.32,1.419,3.1,3.1,0,0,1-.064,1.688,2.038,2.038,0,0,1-1.684,1.438,4.921,4.921,0,0,1-1.292.041A.578.578,0,0,1,280.533,825.224Z" transform="translate(-241.741 -817.34)" fill="#fff"/>
      </g>
      <path id="Path_1487" data-name="Path 1487" d="M.9-4.536H6.149V-5.888H2.555V-11.7H.9Zm6.766-6.277a.918.918,0,0,0,.7-.242.918.918,0,0,0,.294-.68.9.9,0,0,0-.309-.647.9.9,0,0,0-.684-.213.913.913,0,0,0-.688.231.913.913,0,0,0-.3.66.913.913,0,0,0,.3.66.913.913,0,0,0,.688.231Zm-.8,6.277h1.6v-5.509h-1.6Zm5.642.082a2.556,2.556,0,0,0,2.468-1.393L13.737-6.52a1.356,1.356,0,0,1-1.239.755A1.408,1.408,0,0,1,11.435-6.2a1.408,1.408,0,0,1-.381-1.084,1.408,1.408,0,0,1,.38-1.086,1.408,1.408,0,0,1,1.064-.44,1.373,1.373,0,0,1,1.239.758l1.239-.666a2.531,2.531,0,0,0-2.468-1.4A2.848,2.848,0,0,0,9.436-7.288,2.846,2.846,0,0,0,12.508-4.454ZM21.12-7.27a2.727,2.727,0,0,0-.8-2.065,2.727,2.727,0,0,0-2.068-.792,2.8,2.8,0,0,0-2.083.784,2.8,2.8,0,0,0-.856,2.055,2.86,2.86,0,0,0,3.144,2.836,2.885,2.885,0,0,0,2.273-.893l-.85-.919a1.868,1.868,0,0,1-1.382.532A1.472,1.472,0,0,1,16.922-6.84h4.168c.013-.133.031-.307.031-.43ZM18.263-8.919a1.309,1.309,0,0,1,1.352,1.147H16.9a1.3,1.3,0,0,1,1.362-1.147Zm7.168-1.208a2.412,2.412,0,0,0-1.823.727v-.645H22.083v5.509h1.6V-7.26c0-1.014.553-1.485,1.321-1.485.7,0,1.116.41,1.116,1.3v2.908h1.6V-7.69A2.164,2.164,0,0,0,25.431-10.127Zm5.478,5.673c1.649,0,2.6-.727,2.6-1.751,0-2.171-3.328-1.26-3.328-2.2,0-.287.307-.512,1.024-.512a3.164,3.164,0,0,1,1.587.41l.532-1.137a4.53,4.53,0,0,0-2.12-.481c-1.608,0-2.55.737-2.55,1.782,0,2.2,3.328,1.28,3.328,2.181,0,.307-.276.5-1.014.5A3.769,3.769,0,0,1,29.056-6.2l-.53,1.147a4.73,4.73,0,0,0,2.383.594ZM39.79-7.27a2.727,2.727,0,0,0-.8-2.065,2.727,2.727,0,0,0-2.068-.792,2.8,2.8,0,0,0-2.085.783,2.8,2.8,0,0,0-.857,2.056,2.86,2.86,0,0,0,3.144,2.836A2.885,2.885,0,0,0,39.4-5.343l-.85-.922a1.868,1.868,0,0,1-1.382.53A1.472,1.472,0,0,1,35.589-6.84h4.168C39.767-6.973,39.79-7.147,39.79-7.27Zm-2.86-1.649a1.309,1.309,0,0,1,1.352,1.147H35.566a1.3,1.3,0,0,1,1.364-1.147Zm7.834-3.215v2.67a2.116,2.116,0,0,0-1.646-.663,2.678,2.678,0,0,0-2,.812,2.678,2.678,0,0,0-.751,2.025,2.678,2.678,0,0,0,.751,2.025,2.678,2.678,0,0,0,2,.812,2.119,2.119,0,0,0,1.72-.717v.635h1.526v-7.6ZM43.392-5.765a1.4,1.4,0,0,1-1.046-.447,1.4,1.4,0,0,1-.367-1.076,1.4,1.4,0,0,1,.366-1.078,1.4,1.4,0,0,1,1.047-.448,1.4,1.4,0,0,1,1.041.451,1.4,1.4,0,0,1,.362,1.075,1.4,1.4,0,0,1-.363,1.073A1.4,1.4,0,0,1,43.392-5.765Zm10.394-4.362a2.139,2.139,0,0,0-1.659.663v-2.673h-1.6v7.6h1.526v-.635a2.14,2.14,0,0,0,1.728.717,2.676,2.676,0,0,0,2-.811,2.676,2.676,0,0,0,.751-2.022,2.676,2.676,0,0,0-.747-2.024,2.676,2.676,0,0,0-2-.815Zm-.276,4.362a1.39,1.39,0,0,1-1.042-.448,1.39,1.39,0,0,1-.361-1.075,1.39,1.39,0,0,1,.36-1.077,1.39,1.39,0,0,1,1.043-.449,1.39,1.39,0,0,1,1.043.449,1.39,1.39,0,0,1,.36,1.077,1.39,1.39,0,0,1-.361,1.075A1.39,1.39,0,0,1,53.509-5.765Zm7.762-4.28L59.715-6.308l-1.546-3.738H56.52L58.906-4.5l-.02.051c-.215.492-.461.686-.9.686a1.416,1.416,0,0,1-.9-.348L56.5-2.969a2.446,2.446,0,0,0,1.536.5A2.274,2.274,0,0,0,60.319-4.2l2.488-5.847ZM3.907,6.871a1.076,1.076,0,0,1-.645.2.64.64,0,0,1-.686-.727V4.1H3.95V2.875H2.575V1.531H.975V2.875H.128V4.1h.85V6.369A1.816,1.816,0,0,0,3.036,8.346,2.283,2.283,0,0,0,4.334,8Zm4.577-4.2a2.421,2.421,0,0,0-1.751.655V.666h-1.6v7.6h1.6V5.54c0-1.014.553-1.485,1.321-1.485.7,0,1.116.41,1.116,1.3V8.264h1.6V5.11A2.163,2.163,0,0,0,8.484,2.673ZM17.567,5.53A2.727,2.727,0,0,0,14.7,2.673a2.8,2.8,0,0,0-2.941,2.839A2.86,2.86,0,0,0,14.9,8.348a2.885,2.885,0,0,0,2.273-.891l-.847-.922a1.868,1.868,0,0,1-1.382.532A1.472,1.472,0,0,1,13.368,5.96h4.168C17.546,5.827,17.567,5.653,17.567,5.53ZM14.71,3.881a1.309,1.309,0,0,1,1.352,1.147H13.348A1.3,1.3,0,0,1,14.71,3.881ZM24.868,8.387a3.683,3.683,0,0,0,2.959-1.28l-1.065-.983a2.284,2.284,0,0,1-1.8.85A2.2,2.2,0,0,1,22.666,4.68,2.2,2.2,0,0,1,24.96,2.386a2.3,2.3,0,0,1,1.8.84l1.065-.983A3.7,3.7,0,0,0,24.878.973a3.712,3.712,0,1,0-.01,7.414Zm7.67-5.632V5.479c0,1.014-.532,1.485-1.27,1.485-.7,0-1.116-.41-1.116-1.331V2.752h-1.6V5.865a2.2,2.2,0,0,0,2.355,2.478,2.229,2.229,0,0,0,1.715-.735v.655h1.516V2.755Zm4.506.727V2.755H35.517V8.264h1.6v-2.6a1.354,1.354,0,0,1,1.464-1.536c.123,0,.225.01.358.02V2.675a2.223,2.223,0,0,0-1.9.806Zm4.936-.809a4.235,4.235,0,0,0-2.376.666l.576,1.116a2.649,2.649,0,0,1,1.587-.512c.86,0,1.27.4,1.27,1.088H41.764c-1.679,0-2.368.676-2.368,1.649,0,.952.768,1.669,2.058,1.669a1.808,1.808,0,0,0,1.679-.768v.684h1.5V5.12c0-1.669-.97-2.447-2.65-2.447Zm-.123,4.6c-.563,0-.9-.266-.9-.666,0-.369.236-.645.983-.645h1.1v.563a1.177,1.177,0,0,1-1.178.748Zm6.83-.236a1.408,1.408,0,0,1-1.444-1.523,1.408,1.408,0,0,1,1.444-1.528,1.373,1.373,0,0,1,1.239.76l1.239-.666a2.531,2.531,0,0,0-2.468-1.4,2.848,2.848,0,0,0-3.072,2.836A2.762,2.762,0,0,0,48,8.287l-.246.983H48.1c.358,0,.5.123.5.3,0,.192-.154.328-.532.328a1.553,1.553,0,0,1-.666-.159l-.246.686a2.048,2.048,0,0,0,.952.215c.911,0,1.505-.389,1.505-1.014,0-.42-.266-.778-.891-.85l.1-.43a2.513,2.513,0,0,0,2.335-1.393L49.925,6.28A1.356,1.356,0,0,1,48.686,7.035Zm5.519-4.362a4.235,4.235,0,0,0-2.376.666l.576,1.116a2.649,2.649,0,0,1,1.587-.512c.86,0,1.27.4,1.27,1.088H53.99c-1.679,0-2.368.676-2.368,1.649,0,.952.768,1.669,2.058,1.669A1.808,1.808,0,0,0,55.36,7.58v.684h1.5V5.12C56.858,3.451,55.885,2.673,54.205,2.673Zm-.123,4.6c-.563,0-.9-.266-.9-.666,0-.369.236-.645.983-.645h1.1v.563a1.177,1.177,0,0,1-1.178.748Zm6.8,1.075a2.828,2.828,0,1,0-2.135-.755,2.843,2.843,0,0,0,2.135.755Zm0-1.311a1.4,1.4,0,0,1-1.413-1.523,1.412,1.412,0,1,1,2.816,0,1.39,1.39,0,0,1-1.4,1.523ZM5.742,19.464a2.634,2.634,0,0,1-1.29.307,2.294,2.294,0,1,1,.02-4.588,2.426,2.426,0,0,1,1.856.809l1.065-.983a3.821,3.821,0,0,0-3-1.239,3.714,3.714,0,1,0-.031,7.414,4.947,4.947,0,0,0,2.9-.911V17.367H5.742ZM11.2,21.143a2.842,2.842,0,1,0,0-5.673,2.843,2.843,0,1,0,0,5.673Zm0-1.311a1.4,1.4,0,0,1-1.416-1.521,1.412,1.412,0,1,1,2.816,0,1.39,1.39,0,0,1-1.4,1.523Zm7.762-4.28L17.385,19.3l-1.531-3.745H14.208l2.314,5.509h1.649L20.5,15.555Zm7.332,2.775a2.727,2.727,0,0,0-2.867-2.857,2.8,2.8,0,0,0-2.941,2.842,2.86,2.86,0,0,0,3.144,2.836,2.885,2.885,0,0,0,2.273-.893l-.85-.919a1.868,1.868,0,0,1-1.382.532,1.472,1.472,0,0,1-1.577-1.108H26.26c.01-.133.031-.307.031-.43Zm-2.857-1.649a1.309,1.309,0,0,1,1.352,1.147H22.075a1.3,1.3,0,0,1,1.359-1.144Zm5.345-.4v-.724H27.254v5.509h1.6v-2.6a1.354,1.354,0,0,1,1.464-1.536c.123,0,.225.01.358.02V15.475a2.223,2.223,0,0,0-1.894.806Zm6.093-.809a2.412,2.412,0,0,0-1.825.73v-.645H31.524v5.509h1.6V18.34c0-1.014.553-1.485,1.321-1.485.7,0,1.116.41,1.116,1.3v2.908h1.6V17.91a2.165,2.165,0,0,0-2.289-2.437Zm10.68,0a2.477,2.477,0,0,0-1.989.9,2.056,2.056,0,0,0-1.812-.9,2.231,2.231,0,0,0-1.728.717v-.635H38.5v5.509h1.6V18.3c0-.983.5-1.444,1.208-1.444.666,0,1.044.41,1.044,1.3v2.908h1.6V18.3c0-.983.5-1.444,1.216-1.444.645,0,1.044.41,1.044,1.3v2.908h1.6V17.91a2.14,2.14,0,0,0-2.26-2.437ZM54.6,18.327A2.727,2.727,0,0,0,51.73,15.47a2.8,2.8,0,0,0-2.941,2.842,3.217,3.217,0,0,0,5.417,1.946l-.847-.922a1.868,1.868,0,0,1-1.382.532A1.472,1.472,0,0,1,50.4,18.76h4.168c.01-.133.031-.307.031-.43ZM51.74,16.679a1.309,1.309,0,0,1,1.352,1.147H50.376a1.3,1.3,0,0,1,1.362-1.144Zm7.168-1.208a2.412,2.412,0,0,0-1.825.73v-.645H55.557v5.509h1.6V18.34c0-1.014.553-1.485,1.321-1.485.7,0,1.116.41,1.116,1.3v2.908h1.6V17.91a2.165,2.165,0,0,0-2.289-2.437Zm6.748,4.2a1.076,1.076,0,0,1-.645.2.64.64,0,0,1-.686-.727V16.9H65.7V15.675H64.325V14.331h-1.6v1.344h-.85V16.9h.85v2.266a1.816,1.816,0,0,0,2.058,1.976,2.283,2.283,0,0,0,1.3-.348Z" transform="translate(77.394 24.376)" fill="#fff"/>
    </g>
  </g>
</svg>
