<svg xmlns="http://www.w3.org/2000/svg" xmlns:xlink="http://www.w3.org/1999/xlink" width="188.1" height="66" viewBox="0 0 188.1 66">
  <defs>
    <clipPath id="clip-path">
      <rect id="Прямоугольник_333" data-name="Прямоугольник 333" width="188.1" height="66"/>
    </clipPath>
  </defs>
  <g id="icon-en-1bettingsite" transform="translate(94.05 33)">
    <g id="icon-en-1bettingsite-2" data-name="icon-en-1bettingsite" transform="translate(-94.05 -33)" clip-path="url(#clip-path)">
      <g id="icon-1bettingsite" transform="translate(1.98 11.88)">
        <g id="icon-1bettingsite-2" data-name="icon-1bettingsite" transform="translate(0)">
          <path id="Path_255" d="M151.846,32.764a3.251,3.251,0,0,0,1.914-2.97c0-2.112-1.782-3.63-5.61-3.63h-7.392v13.86h7.788c3.828,0,5.874-1.386,5.874-3.828A3.487,3.487,0,0,0,151.846,32.764ZM147.49,29.4c1.056,0,1.518.33,1.518,1.056,0,.66-.462,1.056-1.518,1.056h-2.178V29.464h2.178Zm.66,7.326h-2.838V34.546h2.838c1.056,0,1.518.4,1.518,1.122C149.668,36.328,149.206,36.724,148.15,36.724Zm12.8-.264V34.612h5.874V31.246h-5.874V29.6h6.666V26.1H156.334v13.86h11.55v-3.5Zm12.078,3.5h4.686V29.728h4.026V26.1h-12.8v3.63h4.092Zm13.464,0h4.686V29.728h4.092V26.1h-12.8v3.63h4.092v10.23Zm10.23,0h4.686V26.1h-4.686ZM213.094,26.1v6.27l-5.28-6.27h-3.828v13.86h4.554v-6.27l5.28,6.27h3.828V26.1Zm16.3,10.1a4.958,4.958,0,0,1-1.716.33,3.188,3.188,0,0,1-3.3-3.432,3.171,3.171,0,0,1,3.366-3.432,4.043,4.043,0,0,1,3.1,1.518l2.97-2.64a7.875,7.875,0,0,0-6.336-2.64c-4.554,0-7.854,2.97-7.854,7.26s3.234,7.26,7.722,7.26a10.843,10.843,0,0,0,6.006-1.782V32.764H229.33V36.2Zm-83.49,22.572c4.29,0,6.468-2.112,6.468-4.686,0-5.082-7.656-3.7-7.656-5.412,0-.462.462-.858,1.782-.858a9.042,9.042,0,0,1,3.894,1.056L151.78,45.5a10.266,10.266,0,0,0-5.214-1.188c-4.29,0-6.468,2.112-6.468,4.686,0,5.148,7.656,3.762,7.656,5.478,0,.462-.462.726-1.782.726a9.266,9.266,0,0,1-4.554-1.254L139.9,57.382a12.559,12.559,0,0,0,6.006,1.386Zm8.184-.33h4.686V44.578H154.09Zm10.23,0h4.686V48.208H173.1v-3.63h-12.8v3.63h4.026v10.23Zm14.85-3.5V53.092h5.874V49.726H179.17v-1.65h6.666v-3.5H174.55v13.86H186.1v-3.5h-6.93Z" transform="translate(-49.348 -20.752)" fill="#fff"/>
          <path id="Path_254" d="M110.7,26v8.25h5.544V58.34h10.89V26Z" transform="translate(-39.42 -20.786)" fill="#fff"/>
          <path id="Path_253" d="M94.352,41.594V37.832H91.316l.4-3.432H87.686l-.4,3.432H84.782l.4-3.432H81.152l-.4,3.432h-3.5v3.762h3.036l-.4,3.168H76.4v3.762h3.036l-.4,3.432h4.026l.4-3.432H85.97l-.4,3.432H89.6l.4-3.432h3.5V44.762H90.458l.4-3.168ZM86.5,44.762H83.99l.4-3.168h2.508Z" transform="translate(-27.758 -23.642)" fill="#fff"/>
          <rect id="Rectangle_281" data-name="Rectangle 281" width="45.276" height="44.22" transform="translate(0 0.066)" fill="none"/>
          <path id="Path_182" d="M27.4,44.926a1.494,1.494,0,0,1-1.518-1.518v-.264l.792-4.554-3.3-3.234a1.554,1.554,0,0,1,0-2.178,1.577,1.577,0,0,1,.858-.462l4.554-.66L30.828,27.9a1.61,1.61,0,0,1,2.244-.528,2.009,2.009,0,0,1,.528.528l2.046,4.158,4.554.66a1.538,1.538,0,0,1,1.32,1.716,1.38,1.38,0,0,1-.462.858l-3.3,3.234.792,4.554a1.616,1.616,0,0,1-.594,1.518,1.518,1.518,0,0,1-.924.264h-.264l-.462-.2-4.092-2.046-4.092,2.112a1.331,1.331,0,0,1-.726.2M27.066,42.748ZM26.01,34.762l3.1,3.036-.726,4.29,3.828-2.046,3.828,2.046-.726-4.29,3.1-3.036-4.29-.594-1.914-3.96L30.3,34.1ZM39.87,34.96Zm-15.312,0h0" transform="translate(-9.576 -21.166)" fill="#ba041f"/>
          <rect id="Rectangle_282" data-name="Rectangle 282" width="28.38" height="29.04" transform="translate(27.258 25.014)" fill="none"/>
          <path id="Path_289" data-name="Path 289" d="M30.156,59.944h-3.5v-8.58l.462-.132a17.023,17.023,0,0,0,5.544-2.574,13.86,13.86,0,0,1,3.63-3.432,17.193,17.193,0,0,0,1.848-2.97l.4-.858c8.976-1.848,9.438-5.016,9.438-9.966V29.254a2.676,2.676,0,0,0-2.706-2.706H40.254V20.806A2.718,2.718,0,0,0,37.548,18.1H13.128a2.718,2.718,0,0,0-2.706,2.706v5.808H5.406A2.676,2.676,0,0,0,2.7,29.32V31.5c0,4.95.462,8.118,9.438,9.966l.4.858a16.821,16.821,0,0,0,11.022,8.91l.462.132v8.58H18.474A1.254,1.254,0,0,0,17.22,61.2a1.214,1.214,0,0,0,1.254,1.254H30.882A10.935,10.935,0,0,1,30.156,59.944ZM40.32,29.056h5.016a.175.175,0,0,1,.2.2h0v2.178c0,3.828,0,5.742-6.006,7.194A49.549,49.549,0,0,0,40.32,29.056ZM5.208,31.5V29.254a.211.211,0,0,1,.2-.2h5.016a45.97,45.97,0,0,0,.792,9.636C5.208,37.24,5.208,35.326,5.208,31.5ZM25.338,49.12l-1.122-.264a14.929,14.929,0,0,1-9.438-7.59l-.66-1.452C13,37.57,12.864,31.828,12.864,29.122h0v-8.25a.175.175,0,0,1,.2-.2H37.548a.175.175,0,0,1,.2.2h0v8.25h0c.066,2.706-.132,8.514-1.254,10.692h0l-.66,1.452a14.769,14.769,0,0,1-9.372,7.59Z" transform="translate(-2.7 -18.1)" fill="#fff"/>
          <path id="Path_176" d="M70.48,71.29A10.89,10.89,0,1,1,59.59,60.4,10.89,10.89,0,0,1,70.48,71.29h0" transform="translate(-18.34 -32.482)" fill="#00a80c"/>
          <path id="Path_177" d="M60.308,80.33l8.052-8.052a.717.717,0,0,0,0-.99h0l-.99-.99a.717.717,0,0,0-.99,0l-6.6,6.6-3.1-3.1a.717.717,0,0,0-.99,0h0l-.99.99a.717.717,0,0,0,0,.99l4.554,4.554a.8.8,0,0,0,1.056,0h0" transform="translate(-20.312 -35.78)" fill="#fff"/>
        </g>
      </g>
    </g>
  </g>
</svg>
