<svg xmlns="http://www.w3.org/2000/svg" xmlns:xlink="http://www.w3.org/1999/xlink" width="143.22" height="66" viewBox="0 0 143.22 66">
  <defs>
    <clipPath id="clip-path">
      <rect id="Прямоугольник_336" data-name="Прямоугольник 336" width="143.22" height="66"/>
    </clipPath>
  </defs>
  <g id="icon-en-safeandsecure" transform="translate(71.61 33)">
    <g id="icon-en-safeandsecure-2" data-name="icon-en-safeandsecure" transform="translate(-71.61 -33)" clip-path="url(#clip-path)">
      <g id="icon-safeandsecure" transform="translate(0 0.001)">
        <g id="icon-safeandsecure-2" data-name="icon-safeandsecure" transform="translate(0 0)">
          <rect id="Rectangle_257" data-name="Rectangle 257" width="143.22" height="66" fill="none"/>
          <path id="Path_252" d="M88.272,40.25c4.29,0,6.468-2.112,6.468-4.686,0-5.082-7.656-3.7-7.656-5.412,0-.462.462-.858,1.782-.858a8.523,8.523,0,0,1,3.828,1.056l1.386-3.366A10.266,10.266,0,0,0,88.866,25.8c-4.29,0-6.468,2.112-6.468,4.686,0,5.148,7.656,3.762,7.656,5.478,0,.462-.462.726-1.782.726a9.266,9.266,0,0,1-4.554-1.254L82.2,38.864a13.186,13.186,0,0,0,6.072,1.386Zm18.546-.33h4.818l-6.072-13.86h-4.62L94.872,39.92h4.752l.924-2.442h5.28Zm-4.884-5.742,1.32-3.5,1.32,3.5Zm22.044-4.554v-3.5H112.692v13.86h4.686V35.564h5.808v-3.5h-5.808V29.69h6.6Zm6.4,6.8V34.574h5.874V31.208H130.38v-1.65h6.666v-3.5H125.76V39.92h11.55v-3.5Zm28.974-3.168L155.79,32.2a7.951,7.951,0,0,1-.528,1.782l-1.452-1.254c1.65-.924,2.376-1.98,2.376-3.366,0-2.112-1.848-3.5-4.62-3.5-3.036,0-5.016,1.518-5.016,3.762a3.927,3.927,0,0,0,1.188,2.64c-1.848,1.056-2.706,2.244-2.706,4.026,0,2.31,2.442,4.026,5.808,4.026A8.743,8.743,0,0,0,155.461,39l1.451,1.254,2.376-2.706-1.32-1.122a7.525,7.525,0,0,0,1.386-3.168Zm-7.722-4.488a.771.771,0,0,1,.858.726c0,.4-.264.726-1.056,1.188-.528-.528-.726-.792-.726-1.122-.066-.462.264-.792.924-.792Zm-.4,8.184c-1.122,0-1.716-.528-1.716-1.188a1.584,1.584,0,0,1,.792-1.32l2.508,2.178a4.537,4.537,0,0,1-1.584.33ZM88.272,58.73c4.29,0,6.468-2.112,6.468-4.686,0-5.082-7.656-3.7-7.656-5.412,0-.462.462-.858,1.782-.858a8.523,8.523,0,0,1,3.828,1.056l1.386-3.366a10.266,10.266,0,0,0-5.214-1.188c-4.29,0-6.468,2.112-6.468,4.686,0,5.148,7.656,3.762,7.656,5.478,0,.462-.462.726-1.782.726a9.266,9.266,0,0,1-4.554-1.254L82.2,57.344a13.185,13.185,0,0,0,6.072,1.386Zm12.8-3.828V53.054h5.874V49.688h-5.874v-1.65h6.666v-3.5H96.456V58.4h11.55V54.9Zm16.17,3.828a7.409,7.409,0,0,0,6.2-2.772l-2.97-2.64a3.94,3.94,0,0,1-3.036,1.65,3.139,3.139,0,0,1-3.234-3.432,3.194,3.194,0,0,1,3.234-3.5,3.68,3.68,0,0,1,3.036,1.65l2.97-2.64a7.5,7.5,0,0,0-6.2-2.772c-4.488,0-7.722,2.97-7.722,7.26s3.3,7.194,7.722,7.194Zm14.322,0c4.224,0,6.732-2.376,6.732-6.534V44.54h-4.62V52c0,2.112-.792,2.9-2.112,2.9s-2.112-.792-2.112-2.9V44.54H124.77v7.59c.066,4.224,2.574,6.6,6.8,6.6Zm17.49-.33h5.016l-2.9-4.29a4.67,4.67,0,0,0,2.64-4.356c0-3.234-2.442-5.214-6.336-5.214h-6.666V58.4h4.686V54.968h1.254Zm0-8.58c0,.99-.594,1.65-1.914,1.65h-1.716V48.236h1.716C148.464,48.17,149.058,48.764,149.058,49.82ZM160.476,54.9V53.054h5.874V49.688h-5.874v-1.65h6.666v-3.5H155.856V58.4h11.55V54.9Z" transform="translate(-27.948 -8.768)" fill="#fff"/>
          <rect id="Rectangle_258" data-name="Rectangle 258" width="37.092" height="45.012" transform="translate(3.564 6.93)" fill="none"/>
          <path id="Path_174" d="M30.466,58.622h1.65a3.38,3.38,0,0,0,3.366-3.366v-7.59A3.38,3.38,0,0,0,32.116,44.3h-1.65A3.38,3.38,0,0,0,27.1,47.666v7.656a3.324,3.324,0,0,0,3.366,3.3m-.66-10.956a.66.66,0,0,1,.66-.66h1.65a.66.66,0,0,1,.66.66v7.656a.66.66,0,0,1-.66.66h-1.65a.66.66,0,0,1-.66-.66Z" transform="translate(-9.214 -15.062)" fill="#ba041f"/>
          <g id="Group_28" transform="translate(25.729 36.974)">
            <rect id="Rectangle_259" data-name="Rectangle 259" width="29.04" height="29.04" transform="translate(0 0)" fill="none"/>
            <g id="Group_27" transform="translate(3.168 2.904)">
              <path id="Path_176" d="M32.18,26.29A10.89,10.89,0,1,1,21.29,15.4,10.89,10.89,0,0,1,32.18,26.29h0" transform="translate(-10.4 -15.4)" fill="#00a80c"/>
              <path id="Path_177" d="M22.008,35.33l8.052-8.052a.717.717,0,0,0,0-.99h0l-.99-.99a.718.718,0,0,0-.99,0l-6.6,6.6-3.1-3.1a.718.718,0,0,0-.99,0h0l-.99.99a.718.718,0,0,0,0,.99l4.554,4.554a.8.8,0,0,0,1.056,0h0" transform="translate(-12.372 -18.698)" fill="#fff"/>
            </g>
          </g>
          <path id="Path_280" data-name="Path 280" d="M27.51,54.522a8.844,8.844,0,0,1,.066-1.32v-.594L8.238,52.542,8.3,29.376l31.218.066V40.53h.132a18.647,18.647,0,0,1,1.914-.132,3.762,3.762,0,0,1,.858.066V29.442a2.957,2.957,0,0,0-2.97-2.97h-2.9v-3.3a12.672,12.672,0,0,0-25.344,0h0v3.3H8.37a2.957,2.957,0,0,0-2.97,2.97v23.1a2.957,2.957,0,0,0,2.97,2.97H27.576a5,5,0,0,1-.066-.99Zm-13.4-31.35a9.8,9.8,0,1,1,19.6,0v3.3h-19.6Z" transform="translate(-1.836 -3.57)" fill="#fff"/>
        </g>
      </g>
    </g>
  </g>
</svg>
