<svg xmlns="http://www.w3.org/2000/svg" width="302.002" height="62.941" viewBox="0 0 302.002 62.941">
    <g data-name="Group 7569">
        <path data-name="Path 1533" d="M8.937-7.223h3.5l-2.493-3.633a3.836 3.836 0 0 0 2.263-3.65c0-2.643-1.982-4.278-5.137-4.278H1.785v11.561h3.27v-3.072h1.784zM8.9-14.507c0 1.057-.677 1.685-2.032 1.685H5.055v-3.386h1.817c1.354 0 2.028.628 2.028 1.701zm8.522-1.817a7.522 7.522 0 0 0-3.947 1.041l1.057 2.131a4.171 4.171 0 0 1 2.428-.776c1.239 0 1.85.512 1.9 1.42h-1.781c-2.775 0-3.98 1.024-3.98 2.676 0 1.553 1.189 2.758 3.336 2.758a2.712 2.712 0 0 0 2.643-1.3v1.156H22v-4.971c0-2.846-1.667-4.134-4.574-4.134zm-.112 7.268c-.743 0-1.173-.38-1.173-.908 0-.545.363-.908 1.371-.908h1.354v.776a1.546 1.546 0 0 1-1.552 1.04zm8.077-8.11a1.742 1.742 0 0 0 1.913-1.717 1.7 1.7 0 0 0-1.913-1.617 1.734 1.734 0 0 0-1.916 1.668 1.734 1.734 0 0 0 1.916 1.666zm-1.569 9.943h3.138v-8.952h-3.138zm8.258.149c2.907 0 4.426-1.288 4.426-2.94 0-3.551-5.269-2.213-5.269-3.452 0-.33.38-.628 1.437-.628a5.245 5.245 0 0 1 2.577.661l.941-2.131a7.853 7.853 0 0 0-3.535-.76c-2.808 0-4.36 1.288-4.36 2.973 0 3.584 5.285 2.213 5.285 3.419 0 .38-.347.611-1.4.611a6.278 6.278 0 0 1-3.122-.826L28.112-8a8.215 8.215 0 0 0 3.964.926zm14.766-4.608a4.484 4.484 0 0 0-4.79-4.641 4.619 4.619 0 0 0-4.922 4.608c0 2.676 2.065 4.641 5.252 4.641A4.845 4.845 0 0 0 46.2-8.528l-1.652-1.718a2.868 2.868 0 0 1-2.065.776 2.067 2.067 0 0 1-2.2-1.437h6.507c.019-.247.052-.544.052-.775zm-4.773-2.411a1.769 1.769 0 0 1 1.831 1.535h-3.665a1.78 1.78 0 0 1 1.834-1.536zm17.144-2.081L57-10.708l-2.2-5.467h-3.218l3.832 9.068a1.211 1.211 0 0 1-1.222.76 2.132 2.132 0 0 1-1.392-.529l-1.09 2.2a4.366 4.366 0 0 0 2.593.809c1.767 0 3.089-.677 4.03-2.989l3.867-9.319zm7.878 9.1c2.956 0 5.054-1.932 5.054-4.641 0-2.692-2.1-4.608-5.054-4.608-2.923 0-5.054 1.916-5.054 4.608 0 2.708 2.131 4.641 5.054 4.641zm0-2.494a1.911 1.911 0 0 1-1.883-2.147 1.891 1.891 0 0 1 1.883-2.114 1.882 1.882 0 0 1 1.883 2.114 1.9 1.9 0 0 1-1.883 2.147zm12.619-6.607v4.311c0 1.5-.76 2.114-1.685 2.114-.941 0-1.486-.545-1.486-1.932v-4.492H73.4v5c0 2.841 1.6 4.1 3.8 4.1a3.528 3.528 0 0 0 2.659-1.107v.958h2.989v-8.952zm7.977 1.075v-1.074H84.7v8.952h3.138v-4.113a1.953 1.953 0 0 1 2.147-2.213 5.715 5.715 0 0 1 .71.05v-2.824a3.664 3.664 0 0 0-3.008 1.222zm15.443-1.074v1.09a3.249 3.249 0 0 0-2.808-1.239 4.23 4.23 0 0 0-4.393 4.311 4.234 4.234 0 0 0 4.393 4.327 3.342 3.342 0 0 0 2.659-1.057v.3c0 1.4-.71 2.164-2.395 2.164a5.185 5.185 0 0 1-3.023-.958l-1.14 2.2a7.866 7.866 0 0 0 4.443 1.173c3.336 0 5.252-1.6 5.252-4.988v-7.317zm-2.065 6a1.833 1.833 0 0 1-1.965-1.839 1.82 1.82 0 0 1 1.965-1.817 1.806 1.806 0 0 1 1.949 1.817 1.819 1.819 0 0 1-1.949 1.834zm10.719-6.144a7.522 7.522 0 0 0-3.947 1.041l1.057 2.131a4.17 4.17 0 0 1 2.428-.776c1.239 0 1.85.512 1.9 1.42h-1.784c-2.775 0-3.98 1.024-3.98 2.676 0 1.553 1.189 2.758 3.336 2.758a2.712 2.712 0 0 0 2.643-1.3v1.156h2.923v-4.971c0-2.852-1.668-4.14-4.575-4.14zm-.116 7.267c-.743 0-1.173-.38-1.173-.908 0-.545.363-.908 1.371-.908h1.354v.776a1.546 1.546 0 0 1-1.551 1.035zm18.168-7.267a3.877 3.877 0 0 0-3.105 1.4 3.277 3.277 0 0 0-2.89-1.4 3.56 3.56 0 0 0-2.676 1.09v-.941h-2.989v8.952h3.138v-4.443c0-1.387.661-2 1.586-2 .842 0 1.354.545 1.354 1.833v4.608h3.138v-4.443c0-1.387.661-2 1.569-2 .826 0 1.354.545 1.354 1.833v4.608h3.138v-5.12c.001-2.777-1.535-3.982-3.616-3.982zm14.716 4.641a4.484 4.484 0 0 0-4.79-4.641 4.619 4.619 0 0 0-4.922 4.608c0 2.676 2.065 4.641 5.252 4.641a4.845 4.845 0 0 0 3.815-1.453l-1.652-1.718a2.868 2.868 0 0 1-2.065.776 2.067 2.067 0 0 1-2.2-1.437h6.51c.02-.253.053-.55.053-.781zm-4.773-2.411a1.769 1.769 0 0 1 1.833 1.536h-3.667a1.78 1.78 0 0 1 1.835-1.542z" transform="translate(60.903 66.811)" style="fill:#fff"/>
        <g data-name="Group 340">
            <path data-name="Path 1506" d="M316.554-40.6a.428.428 0 0 1 .446-.41h12.638c5.711 0 9.8.946 12.585 2.907a10.543 10.543 0 0 1 4.518 8.778 11.35 11.35 0 0 1-3.856 8.993c-3.209 2.638-7.86 3.815-13.216 3.815-.8 0-1.525-.049-2.115-.091a.429.429 0 0 0-.475.41V-4.68a.43.43 0 0 1-.448.41H317a.428.428 0 0 1-.446-.41zm10.523 16.193a.429.429 0 0 0 .446.41h1.982c4.136 0 6.726-1.961 6.726-5.1 0-2.72-.972-4.316-5.02-4.316l-3.687-.011a.43.43 0 0 0-.447.41z" transform="translate(-316.555 43.753)" style="fill:#fff"/>
            <path data-name="Path 1520" d="M368.1-20.47a12.847 12.847 0 0 0-7.927-12.23.607.607 0 0 0-.91.476l-1.838 6.415a.6.6 0 0 0 .13.712 6.913 6.913 0 0 1 2.371 4.9c0 3.723-3.283 6.742-7.335 6.744s-7.334-3.022-7.334-6.744a6.913 6.913 0 0 1 2.371-4.9.6.6 0 0 0 .13-.712l-1.838-6.415a.607.607 0 0 0-.91-.476 12.847 12.847 0 0 0-7.927 12.235c0 9.618 7.443 14.123 15.5 14.172h.011c8.063-.053 15.506-4.559 15.506-14.177z" transform="translate(-309.661 46.517)" style="fill:#fff"/>
            <path data-name="Path 1521" d="M427.286-40.205a.466.466 0 0 1 .485-.445h12.6c5.711 0 9.8.946 12.583 2.908a10.538 10.538 0 0 1 4.519 8.776 11.35 11.35 0 0 1-3.856 8.993c-3.209 2.638-7.86 3.815-13.216 3.815-.779 0-1.491-.047-2.07-.087a.467.467 0 0 0-.52.443v11.45a.468.468 0 0 1-.485.446h-9.554a.467.467 0 0 1-.485-.446zm10.524 16.123a.465.465 0 0 0 .483.445h1.944c4.136 0 6.727-1.961 6.727-5.1 0-2.718-.972-4.316-5.02-4.316l-3.648-.011a.467.467 0 0 0-.486.446z" transform="translate(-279.371 43.874)" style="fill:#ba101f"/>
            <path data-name="Path 1522" d="M369.011-33.324a.459.459 0 0 1 .464.345c.431 2.008 2.618 12.219 3.016 15.068h.132c.454-2.867 3.563-13.182 4.145-15.1a.458.458 0 0 1 .453-.31h7.557a.469.469 0 0 1 .46.331l4.047 15.19h.117l3.106-15.168a.466.466 0 0 1 .465-.355h9.305a.443.443 0 0 1 .453.56l-8.357 25.742a.471.471 0 0 1-.453.311h-9.261a.466.466 0 0 1-.462-.342l-3.509-14.672h-.118l-3.583 14.675a.467.467 0 0 1-.462.339h-9.257a.47.47 0 0 1-.456-.315l-8.043-25.744a.444.444 0 0 1 .454-.556z" transform="translate(-302.385 46.335)" style="fill:#fff"/>
            <path data-name="Path 1523" d="M399.626-16.445c-.371.012-.576.239-.263.733 1.408 2.225 4.763 2.554 7.069 2.554l4.88.013a.462.462 0 0 1 .448.319l1.533 6.288a.437.437 0 0 1-.449.534l-7.972.012c-10.2 0-15.955-5.166-15.955-13.592 0-6.209 4.343-14.186 15.013-14.186 9.36 0 13.363 6.314 13.363 13.619a17.859 17.859 0 0 1-.3 3.353.458.458 0 0 1-.458.353zm7.408-6.6a.445.445 0 0 0 .463-.473 3.939 3.939 0 0 0-4.083-3.883 4.5 4.5 0 0 0-4.457 3.87.435.435 0 0 0 .462.486z" transform="translate(-292.255 46.185)" style="fill:#fff"/>
            <path data-name="Path 1524" d="M411.075-24.212c0-3.959-.064-6.427-.2-8.544a.428.428 0 0 1 .449-.437h8.168a.436.436 0 0 1 .449.383l.353 4.417h.235a10.37 10.37 0 0 1 7.555-5.223 8.184 8.184 0 0 1 1.9-.071.423.423 0 0 1 .378.411v8.3a.436.436 0 0 1-.521.407 13.09 13.09 0 0 0-2.187-.175 5.766 5.766 0 0 0-5.8 4.11 7.855 7.855 0 0 0-.148 1.664v11.978a.434.434 0 0 1-.45.414h-9.726a.434.434 0 0 1-.45-.414z" transform="translate(-284.884 46.203)" style="fill:#fff"/>
            <path data-name="Path 1525" d="m449.687-40.559 9.731-2.486a.442.442 0 0 1 .578.393v39.145a.431.431 0 0 1-.448.411h-9.731a.431.431 0 0 1-.447-.411v-36.66a.417.417 0 0 1 .317-.392z" transform="translate(-271.955 43.064)" style="fill:#ba101f"/>
            <path data-name="Path 1526" d="M475.668-6.3a.478.478 0 0 1-.474-.353l-.476-1.986h-.206c-2.016 2.136-4.9 2.933-8.022 2.933-5.915 0-9.58-3.922-9.58-8.357 0-7.141 6.976-10.319 16.823-10.332v-.244c0-1.094-.9-2.02-4.756-2.02l-6.214-.015a.48.48 0 0 1-.472-.339l-1.375-5.939a.46.46 0 0 1 .474-.558h9.544c9.978 0 13.409 5.1 13.409 11.739v8.993a39.257 39.257 0 0 0 .37 5.972.438.438 0 0 1-.454.506zm-1.6-11.7a.485.485 0 0 0-.512-.454c-4.007.1-6.26 1.2-6.26 3.429 0 1.7 1.209 2.57 3 2.57a3.912 3.912 0 0 0 3.636-2.463 5.033 5.033 0 0 0 .132-1.364z" transform="translate(-269.423 46.271)" style="fill:#ba101f"/>
            <path data-name="Path 1527" d="M497.98-33.067h10.072a.53.53 0 0 1 .538.688l-5.943 16.217c-4.327 11.17-6.919 15.4-10.056 17.973a14.106 14.106 0 0 1-9.92 3.607c-.16 0-6.917.031-9.226.048a.529.529 0 0 1-.545-.666l2-7.18a.551.551 0 0 1 .529-.37c1.331-.015 5.712-.057 6-.057 2.916 0 5.588-1.357 6.155-2.921a3.871 3.871 0 0 0 .116-3.076l-10.277-23.547a.528.528 0 0 1 .528-.716h10.512a.563.563 0 0 1 .544.371l4.619 14.085 3.763-13.95a.592.592 0 0 1 .591-.506z" transform="translate(-264.062 46.421)" style="fill:#ba101f"/>
            <path data-name="Path 1528" d="M350.506-20.023a.548.548 0 0 0 .576-.466l4.018-16.654a.634.634 0 0 0-.64-.8h-8.97a.634.634 0 0 0-.64.8l4.019 16.653a.548.548 0 0 0 .576.466h.53l.531.001z" transform="translate(-307.059 44.782)" style="fill:#ba101f"/>
            <g data-name="Group 339">
                <path data-name="Path 1529" d="M498.446-24.3a2.853 2.853 0 0 1 3.064-2.872 2.836 2.836 0 0 1 3.058 2.872 2.828 2.828 0 0 1-3.064 2.865 2.843 2.843 0 0 1-3.058-2.865z" transform="translate(-255.475 48.399)" style="fill:#fff"/>
                <path data-name="Path 1530" d="M515.7-20.254a.387.387 0 0 1-.251.434 13.09 13.09 0 0 1-3.721.449c-4.866 0-7.932-2.613-7.932-6.878 0-3.834 2.865-7.124 8.586-7.124a12.767 12.767 0 0 1 3.02.351.4.4 0 0 1 .281.466l-.594 2.836a.385.385 0 0 1-.471.3 7.443 7.443 0 0 0-1.924-.214 3.119 3.119 0 0 0-3.406 3.2c0 2.191 1.644 3.241 3.541 3.241a7.5 7.5 0 0 0 1.922-.214.394.394 0 0 1 .5.311z" transform="translate(-253.68 46.318)" style="fill:#fff"/>
                <path data-name="Path 1531" d="M528.677-26.505c0 4.878-3.8 7.151-7.9 7.151-4.383 0-7.784-2.551-7.784-6.918 0-4.265 3.074-7.109 8.059-7.109 4.589-.001 7.625 2.836 7.625 6.876zm-10.035-1.333c-.4 2.681.223 5.011 2.267 5.011 1.443 0 2.232-1.392 2.232-3.548 0-1.862-.66-3.547-2.266-3.535a2.379 2.379 0 0 0-2.232 2.072z" transform="translate(-250.591 46.315)" style="fill:#fff"/>
                <path data-name="Path 1532" d="M525.73-28.51c0-1.623-.049-3.043-.1-4.22a.34.34 0 0 1 .346-.353h4.138l.216 1.672h.1a5.274 5.274 0 0 1 4.331-1.972 4.138 4.138 0 0 1 3.958 2.135h.059a6.178 6.178 0 0 1 2.008-1.59 5.922 5.922 0 0 1 2.59-.545c3.154 0 4.971 2.093 4.971 5.825V-20a.346.346 0 0 1-.347.346h-4.516a.346.346 0 0 1-.346-.346v-6.818c0-1.664-.528-2.62-1.718-2.62a1.677 1.677 0 0 0-1.636 1.139 3.147 3.147 0 0 0-.142.988V-20a.346.346 0 0 1-.346.346h-4.515a.346.346 0 0 1-.346-.346v-6.954c0-1.5-.5-2.483-1.712-2.483a1.744 1.744 0 0 0-1.628 1.1 2.551 2.551 0 0 0-.158 1V-20a.346.346 0 0 1-.346.346h-4.515a.346.346 0 0 1-.346-.346z" transform="translate(-246.348 46.315)" style="fill:#fff"/>
            </g>
        </g>
    </g>
</svg>
